<svg width="103" height="103" viewBox="0 0 103 103" fill="none" xmlns="http://www.w3.org/2000/svg">
<path d="M60.0622 4.09606C59.1472 2.49654 57.4479 1.50879 55.605 1.50879H47.3952C45.5522 1.50879 43.8529 2.49654 42.938 4.09606C41.7491 6.17477 40.2596 9.28489 39.6981 12.5946H63.302C62.7406 9.28509 61.2511 6.17477 60.0622 4.09606Z" fill="#858384"/>
<path d="M91.0742 24.0349C91.5584 22.2567 91.0551 20.3568 89.7521 19.0536L83.9469 13.2484C82.6437 11.9452 80.7438 11.4421 78.9657 11.9263C76.655 12.5554 73.4027 13.7015 70.6655 15.6448L87.356 32.3352C89.2991 29.5979 90.445 26.3453 91.0742 24.0349Z" fill="#858384"/>
<path d="M98.904 60.0622C100.504 59.1472 101.491 57.4479 101.491 55.605V47.3952C101.491 45.5522 100.504 43.8529 98.904 42.938C96.8253 41.7491 93.7152 40.2596 90.4055 39.6981V63.302C93.7152 62.7406 96.8253 61.2511 98.904 60.0622Z" fill="#858384"/>
<path d="M78.9655 91.0739C80.7437 91.5581 82.6435 91.0547 83.9467 89.7517L89.752 83.9465C91.0551 82.6433 91.5583 80.7435 91.0741 78.9653C90.445 76.6547 89.2989 73.4023 87.3556 70.6652L70.6652 87.3556C73.4025 89.2987 76.6551 90.4446 78.9655 91.0739Z" fill="#858384"/>
<path d="M42.938 98.9039C43.8529 100.504 45.5522 101.491 47.3952 101.491H55.605C57.4479 101.491 59.1472 100.503 60.0622 98.9039C61.2511 96.8252 62.7406 93.7151 63.302 90.4054H39.6981C40.2596 93.7149 41.7491 96.8252 42.938 98.9039Z" fill="#858384"/>
<path d="M11.9259 78.9651C11.4417 80.7433 11.945 82.6432 13.248 83.9464L19.0533 89.7516C20.3564 91.0548 22.2563 91.5579 24.0345 91.0737C26.3451 90.4446 29.5975 89.2985 32.3346 87.3552L15.6442 70.6648C13.7011 73.4021 12.5552 76.6547 11.9259 78.9651Z" fill="#858384"/>
<path d="M4.09606 42.938C2.49634 43.8529 1.50879 45.5522 1.50879 47.3952V55.605C1.50879 57.4479 2.49654 59.1472 4.09606 60.0622C6.17477 61.2511 9.28489 62.7406 12.5946 63.302V39.6981C9.28509 40.2596 6.17477 41.7491 4.09606 42.938Z" fill="#858384"/>
<path d="M24.0344 11.9261C22.2562 11.4418 20.3563 11.9452 19.0532 13.2482L13.2479 19.0534C11.9448 20.3566 11.4416 22.2564 11.9258 24.0346C12.5549 26.3453 13.701 29.5976 15.6443 32.3347L32.3347 15.6443C29.5976 13.7012 26.345 12.5553 24.0344 11.9261Z" fill="#858384"/>
<path d="M51.4998 10.8528C29.0511 10.8528 10.8527 29.0512 10.8527 51.5C10.8527 73.9487 29.0511 92.1471 51.4998 92.1471C73.9486 92.1471 92.147 73.9487 92.147 51.5C92.147 29.0512 73.9486 10.8528 51.4998 10.8528ZM51.4998 68.7062C41.9971 68.7062 34.2936 61.0027 34.2936 51.5C34.2936 41.9972 41.9971 34.2937 51.4998 34.2937C61.0026 34.2937 68.7061 41.9972 68.7061 51.5C68.7061 61.0027 61.0026 68.7062 51.4998 68.7062Z" fill="#BAB8B9"/>
<path d="M18.8995 51.5C18.8995 30.4091 34.9633 13.0713 55.5233 11.051C54.1996 10.921 52.8577 10.853 51.4998 10.853C29.0511 10.8528 10.8527 29.0512 10.8527 51.5C10.8527 73.9488 29.0511 92.1472 51.4998 92.1472C52.8577 92.1472 54.1996 92.0792 55.5233 91.9492C34.9633 89.9287 18.8995 72.5909 18.8995 51.5Z" fill="#9E9C9D"/>
<path d="M40.5149 25.8C41.3481 25.8 42.0237 25.1244 42.0237 24.2912V22.303C42.0237 21.4697 41.3481 20.7942 40.5149 20.7942C39.6816 20.7942 39.0061 21.4697 39.0061 22.303V24.2912C39.0061 25.1244 39.6816 25.8 40.5149 25.8Z" fill="black"/>
<path d="M62.4849 25.8C63.3181 25.8 63.9937 25.1244 63.9937 24.2912V22.303C63.9937 21.4697 63.3181 20.7942 62.4849 20.7942C61.6516 20.7942 60.9761 21.4697 60.9761 22.303V24.2912C60.9761 25.1244 61.6516 25.8 62.4849 25.8Z" fill="black"/>
<path d="M51.4999 26.861C52.992 26.861 54.3943 26.2358 55.3473 25.1456C55.8957 24.5182 55.8317 23.5652 55.2042 23.0166C54.577 22.4682 53.6238 22.5322 53.0752 23.1597C52.6954 23.5942 52.1213 23.8435 51.4999 23.8435C50.8784 23.8435 50.3043 23.5942 49.9245 23.1597C49.3759 22.5322 48.4227 22.4682 47.7955 23.0166C47.168 23.565 47.1039 24.5182 47.6525 25.1456C48.6054 26.2358 50.0076 26.861 51.4999 26.861Z" fill="black"/>
<path d="M99.6531 41.6283C97.6925 40.507 94.7646 39.0855 91.566 38.389C90.8921 36.3345 90.0657 34.3487 89.0976 32.446C90.8693 29.691 91.9358 26.6122 92.5298 24.4309C93.1544 22.1361 92.4988 19.6668 90.8186 17.9864C90.8186 17.9864 85.0174 12.1854 85.0134 12.1812C83.3453 10.513 80.8437 9.85038 78.5691 10.4702C76.3882 11.0641 73.3096 12.1303 70.554 13.9022C68.6517 12.9341 66.6661 12.1081 64.612 11.4342C63.9159 8.23557 62.4934 5.30772 61.3719 3.3469C60.1908 1.28247 57.9812 0 55.6047 0H47.3949C45.0186 0 42.809 1.28247 41.6279 3.3471C40.5064 5.30792 39.0849 8.23578 38.3888 11.4342C36.3343 12.1081 34.3485 12.9345 32.4458 13.9026C29.6902 12.1307 26.6118 11.0643 24.4307 10.4704C22.148 9.84897 19.6587 10.5088 17.9862 12.1814L12.1814 17.9866C10.501 19.6672 9.84555 22.1364 10.4704 24.4311C11.0643 26.6122 12.1307 29.691 13.9026 32.4462C12.9345 34.3489 12.1083 36.3347 11.4342 38.3892C8.23557 39.0855 5.30772 40.507 3.3473 41.6283C1.28247 42.809 0 45.0186 0 47.3951V55.6049C0 57.9812 1.28247 60.1908 3.3471 61.3717C5.30792 62.4932 8.23598 63.9147 11.4342 64.6108C12.1081 66.6651 12.9345 68.6511 13.9026 70.5538C12.1307 73.3092 11.0643 76.3878 10.4706 78.5689C9.84575 80.8636 10.5012 83.3332 12.1816 85.0134C12.1816 85.0134 17.9807 90.8126 17.9866 90.8186C19.6537 92.4857 22.1583 93.1488 24.4313 92.5296C26.6124 91.9357 29.691 90.8693 32.4464 89.0976C34.3489 90.0657 36.3349 90.8919 38.3892 91.566C39.0853 94.7642 40.5068 97.6923 41.6283 99.6531C42.8092 101.718 45.0188 103 47.3951 103H55.6049C57.9814 103 60.191 101.718 61.3719 99.6529C62.4934 97.6921 63.9149 94.7642 64.6112 91.5658C66.6655 90.8919 68.6515 90.0655 70.554 89.0974C73.3094 90.8691 76.3882 91.9355 78.5693 92.5294C80.8522 93.1508 83.3411 92.491 85.0136 90.8184L90.8188 85.0132C92.499 83.333 93.1546 80.8636 92.5298 78.5687C91.9358 76.3876 90.8693 73.3088 89.0976 70.5538C90.0659 68.6511 90.8921 66.6651 91.566 64.6108C94.7644 63.9147 97.6923 62.4932 99.6531 61.3717C101.718 60.1908 103 57.9812 103 55.6049V47.3951C103 45.0188 101.718 42.8092 99.6531 41.6283ZM90.6279 52.4006C90.5817 54.3995 90.3817 56.3959 90.0351 58.3644C90.0298 58.3938 90.0248 58.4229 90.0196 58.4521C87.1362 74.471 74.472 87.1356 58.4531 90.0194C58.4231 90.0248 58.3932 90.0298 58.363 90.0353C53.8334 90.8404 49.1644 90.8376 44.6348 90.0351C44.606 90.0301 44.5771 90.025 44.5483 90.0198C28.528 87.1362 15.8628 74.4704 12.98 58.4499C12.5676 56.1577 12.3618 53.8288 12.3618 51.5C12.3618 49.1718 12.569 46.8419 12.98 44.5503C15.8628 28.53 28.5276 15.8644 44.5475 12.9806C44.5771 12.9754 44.6064 12.9702 44.636 12.9649C49.1654 12.1647 53.8324 12.16 58.3616 12.9645C58.3923 12.97 58.4233 12.9752 58.4541 12.9808C74.4726 15.865 87.1362 28.5294 90.0198 44.5481C90.025 44.5773 90.03 44.6066 90.0353 44.6358C90.4861 47.1961 90.6881 49.8011 90.6279 52.4006ZM79.3617 13.382C80.6076 13.0428 81.9661 13.4017 82.8796 14.3152L88.6848 20.1204C89.6018 21.0373 89.9592 22.3854 89.6182 23.6383C89.1843 25.2318 88.4776 27.3495 87.3961 29.387C83.9339 23.7685 79.2317 19.0661 73.613 15.6039C75.6507 14.5222 77.7682 13.8157 79.3617 13.382ZM41.7546 10.479C42.4306 8.2746 43.4278 6.27837 44.2476 4.84543C44.8923 3.71786 46.0985 3.01758 47.3951 3.01758H55.6049C56.9017 3.01758 58.1077 3.71786 58.7524 4.84522C59.572 6.27837 60.5694 8.2744 61.2456 10.479C61.1834 10.4644 61.1208 10.4521 61.0589 10.4376C57.9254 9.71459 54.7165 9.34403 51.5004 9.34403C48.2245 9.34403 44.9418 9.72163 41.7546 10.479ZM14.3152 20.1204C14.3152 20.1204 20.1194 14.316 20.1202 14.3152C21.0209 13.4143 22.3924 13.0426 23.6383 13.382C25.2316 13.8159 27.3493 14.5226 29.3868 15.6039C23.7683 19.0661 19.0659 23.7683 15.6037 29.387C14.5222 27.3493 13.8157 25.232 13.3818 23.6383C13.0406 22.3852 13.3982 21.0373 14.3152 20.1204ZM10.4788 61.2454C8.2744 60.5694 6.27817 59.572 4.84522 58.7524C3.71786 58.1077 3.01758 56.9017 3.01758 55.6049V47.3951C3.01758 46.0983 3.71786 44.8925 4.84522 44.2476C6.27817 43.428 8.2742 42.4306 10.4788 41.7544C10.4638 41.8178 10.4513 41.882 10.4366 41.9455C9.71157 45.0726 9.34403 48.2897 9.34403 51.4998C9.34403 54.7031 9.71037 57.9331 10.4364 61.0536C10.4513 61.1176 10.4638 61.1818 10.4788 61.2454ZM23.6383 89.618C22.3928 89.957 21.0333 89.5999 20.1202 88.6848L14.3152 82.8796C13.3982 81.9627 13.0408 80.6146 13.382 79.3615C13.8157 77.7682 14.5224 75.6505 15.6037 73.613C19.0659 79.2315 23.7681 83.9339 29.3868 87.3961C27.3493 88.4776 25.2318 89.1841 23.6383 89.618ZM61.2454 92.521C60.5692 94.7256 59.572 96.7216 58.7522 98.1548C58.1075 99.2821 56.9015 99.9822 55.6047 99.9822H47.3949C46.0983 99.9822 44.8923 99.2819 44.2474 98.1546C43.4278 96.7214 42.4304 94.7254 41.7544 92.5208C41.8176 92.5358 41.8812 92.5483 41.9445 92.5628C45.0722 93.2864 48.2895 93.6556 51.5 93.6556C54.6789 93.6556 57.9347 93.2884 61.0565 92.5626C61.1192 92.5483 61.1826 92.5358 61.2454 92.521ZM88.6848 82.8796C88.6848 82.8796 82.8832 88.6812 82.8796 88.6848C81.9693 89.5951 80.6029 89.956 79.3617 89.618C77.7682 89.1841 75.6507 88.4776 73.613 87.3961C79.2315 83.9339 83.9339 79.2317 87.3961 73.613C88.4774 75.6505 89.1841 77.768 89.618 79.3615C89.9592 80.6148 89.6016 81.9629 88.6848 82.8796ZM99.9824 55.6049C99.9824 56.9015 99.2821 58.1075 98.1548 58.7524C96.7216 59.572 94.7256 60.5694 92.521 61.2454C92.5356 61.1832 92.5479 61.1204 92.5624 61.0581C93.9133 55.236 94.0125 49.1334 92.8473 43.2713C92.7465 42.7645 92.6405 42.2574 92.521 41.7546C94.7256 42.4308 96.7218 43.428 98.1548 44.2478C99.2821 44.8925 99.9824 46.0985 99.9824 47.3953V55.6049Z" fill="black"/>
<path d="M51.5002 32.785C41.1807 32.785 32.7852 41.1805 32.7852 51.5001C32.7852 54.8659 33.6922 58.1695 35.4082 61.0543C35.8343 61.7705 36.7599 62.0057 37.4763 61.5796C38.1925 61.1535 38.4276 60.2277 38.0015 59.5115C36.5632 57.0934 35.8027 54.3231 35.8027 51.5001C35.8027 42.8444 42.8446 35.8026 51.5002 35.8026C60.1556 35.8026 67.1974 42.8444 67.1974 51.5001C67.1974 60.1557 60.1556 67.1975 51.5002 67.1975C47.9087 67.1975 44.397 65.9514 41.6116 63.6887C40.9646 63.1634 40.0147 63.2616 39.4892 63.9083C38.9637 64.5551 39.0621 65.5052 39.7089 66.0307C43.0304 68.729 47.218 70.2151 51.5002 70.2151C61.8195 70.2151 70.215 61.8196 70.215 51.5001C70.215 41.1805 61.8195 32.785 51.5002 32.785Z" fill="black"/>
</svg>
