<svg width="100" height="100" viewBox="0 0 100 100" fill="none" xmlns="http://www.w3.org/2000/svg">
<path d="M92.4467 84.0685C92.1821 89.1334 87.1612 92.5751 82.3547 90.9562C74.2582 88.2293 66.4898 84.5266 59.2787 79.9447C58.1765 79.2444 57.0316 78.4603 56.4995 77.2676C55.6819 75.4348 56.5741 73.315 57.5906 71.5847C61.2663 65.3285 66.7897 60.1733 73.284 56.9372C76.767 55.2018 80.5229 54.0218 84.3679 53.4292C86.6507 53.0773 91.7155 51.9054 93.4009 54.2024C94.3382 55.4799 93.83 57.5919 93.7547 59.031C93.6767 60.5274 92.9645 74.1583 92.4467 84.0685Z" fill="#FCD2A5"/>
<path d="M98.5331 47.3801C98.5331 25.9925 76.7704 8.65466 49.9246 8.65466C23.0789 8.65466 1.31616 25.9925 1.31616 47.3801C1.31616 68.7676 23.0789 86.1054 49.9246 86.1054C58.3885 86.1054 67.3885 84.466 74.9952 80.548C76.189 79.9332 77.649 80.3004 78.4473 81.38C80.9689 84.7906 83.6931 88.0513 86.6034 91.1368C89.7448 90.3613 92.2617 87.614 92.4469 84.0686C92.7656 77.9711 93.1578 70.4656 93.4306 65.2441C93.4524 64.8271 93.5774 64.4245 93.7859 64.0628C96.656 59.0838 98.5331 53.1368 98.5331 47.3801Z" fill="#FFF1CE"/>
<path d="M19.7946 16.9895C8.53877 24.082 1.31616 35.0593 1.31616 47.3801C1.31616 64.1988 14.7755 78.5168 33.5802 83.865C6.27853 62.1963 13.1326 26.045 19.7946 16.9895Z" fill="#FCD2A5"/>
<path d="M21.9214 38.2149C21.9228 40.8435 19.2481 42.9756 15.9474 42.9771C12.6467 42.9787 9.96981 40.8493 9.96845 38.2209C9.96708 35.5924 12.6418 33.4603 15.9425 33.4585C19.2434 33.4569 21.9201 35.5863 21.9214 38.2149Z" fill="#FFA1AC"/>
<path d="M51.955 38.2047C51.9563 40.8333 54.633 42.9627 57.9339 42.9609C61.2346 42.9593 63.9093 40.8272 63.9079 38.1987C63.9066 35.5701 61.2299 33.4405 57.929 33.4423C54.6283 33.444 51.9536 35.5761 51.955 38.2047Z" fill="#FFA1AC"/>
<path d="M42.9445 36.4588C42.9428 32.8383 40.3197 32.4993 37.0841 32.5011C33.8488 32.5027 31.2259 32.8442 31.2278 36.4647C31.2296 40.0852 33.8541 43.0187 37.0894 43.0172C40.325 43.0156 42.9463 40.0793 42.9445 36.4588Z" fill="#333942"/>
<path d="M85.2099 18.8497C75.7703 11.3294 63.2391 7.18762 49.9243 7.18762C36.6097 7.18762 24.0785 11.3292 14.6388 18.8497C6.04835 25.6937 0.937325 34.594 0.00701551 44.1856C-0.0765089 45.0474 0.603032 45.7939 1.46899 45.7939H1.46938C2.22012 45.7939 2.85467 45.2276 2.92783 44.4806C4.80624 25.2864 25.1653 10.1217 49.9245 10.1217C75.9184 10.1217 97.0659 26.8358 97.0659 47.3801C97.0659 52.5736 95.3956 58.3675 92.4599 63.4254C92.125 64.0022 91.9335 64.65 91.9057 65.3165C91.7334 69.4448 90.9815 83.9919 90.9815 83.9919C90.8792 85.9537 89.8877 87.7126 88.2618 88.8174C86.648 89.9139 84.6655 90.1866 82.8229 89.5661C78.4057 88.0783 74.0941 86.2968 69.9226 84.2417C72.5021 83.3401 74.9941 82.2618 77.3721 81.0099C78.0806 80.6368 78.4041 79.7596 78.0507 79.0411C77.6843 78.2966 76.7788 78.0055 76.0492 78.3905C68.3039 82.4779 59.2704 84.6384 49.9245 84.6384C25.2617 84.6384 4.96293 69.5921 2.94856 50.5039C2.87032 49.7616 2.23772 49.2018 1.49128 49.2018C0.621419 49.2018 -0.0600779 49.9546 0.0302928 50.8198C1.02359 60.3179 6.12151 69.1248 14.6388 75.9104C24.0785 83.4307 36.6097 87.5725 49.9243 87.5725C55.4085 87.5725 60.7948 86.8615 65.9044 85.4838C71.0297 88.192 76.378 90.4916 81.8863 92.3467C87.5378 94.2503 93.6015 90.0796 93.9119 84.1453L94.9097 65.0475C98.1967 59.4555 100 53.2162 100 47.3801C100 36.5802 94.7473 26.4479 85.2099 18.8497Z" fill="black"/>
<path d="M41.8898 31.813C40.6154 31.1675 39.0548 31.0341 37.105 31.0341C37.0978 31.0341 37.0905 31.0341 37.0835 31.0341C34.7059 31.0352 29.7582 31.0378 29.7609 36.4655C29.7619 38.5777 30.5048 40.5705 31.8528 42.0773C33.2414 43.6296 35.1 44.4842 37.0868 44.4842H37.0903C39.0785 44.4832 40.9375 43.6265 42.3254 42.072C43.6717 40.5639 44.4127 38.5702 44.4115 36.4581C44.4104 34.2227 43.562 32.6598 41.8898 31.813ZM40.1365 40.1181C39.3126 41.0409 38.2301 41.5495 37.0886 41.5501C37.088 41.5501 37.0874 41.5501 37.0866 41.5501C35.9458 41.5501 34.8637 41.0427 34.0393 40.121C33.1729 39.1525 32.6954 37.8537 32.6946 36.4639C32.6937 34.5624 33.2991 33.9699 37.0847 33.9682H37.1081C38.432 33.9682 39.7643 34.0255 40.5639 34.4304C41.0379 34.6704 41.4766 35.0823 41.4772 36.4596C41.4782 37.8496 41.0019 39.1488 40.1365 40.1181Z" fill="black"/>
<path d="M21.8277 29.129C19.479 29.129 17.5147 31.0945 17.5161 33.443C17.5165 34.253 18.1732 34.9092 18.9832 34.9092H18.984C19.7944 34.9088 20.4508 34.2516 20.4502 33.4414C20.4498 32.7067 21.0938 32.0631 21.8277 32.0631C22.587 32.0631 23.205 32.6807 23.2054 33.4402C23.2058 34.2502 23.8624 34.9065 24.6724 34.9065H24.6732C25.4834 34.9061 26.1401 34.2489 26.1395 33.4386C26.1381 31.0616 24.2043 29.129 21.8277 29.129Z" fill="black"/>
<path d="M55.1871 34.8936C55.9973 34.8932 56.6537 34.2362 56.6533 33.426C56.6522 31.0781 54.6849 29.1163 52.3394 29.1163C49.962 29.1177 48.0286 31.0528 48.0298 33.4303C48.0302 34.2405 48.6868 34.8967 49.4968 34.8967H49.4974C50.3078 34.8963 50.9643 34.2393 50.9639 33.4291C50.9635 32.6693 51.581 32.051 52.3408 32.0506C53.0739 32.0506 53.7186 32.694 53.719 33.4275C53.7194 34.2375 54.3761 34.894 55.1861 34.894C55.1865 34.8936 55.1869 34.8936 55.1871 34.8936Z" fill="black"/>
</svg>
