<svg width="102" height="102" viewBox="0 0 102 102" fill="none" xmlns="http://www.w3.org/2000/svg">
<path d="M100.506 51C100.506 78.3412 78.3412 100.506 51 100.506C23.6588 100.506 1.49414 78.3412 1.49414 51C1.49414 23.6588 23.6588 1.49414 51 1.49414C78.3412 1.49414 100.506 23.6588 100.506 51Z" fill="#FF929F"/>
<path d="M45.8164 28.9498C56.0015 21.09 61.1072 9.90646 63.4302 3.06766C59.4582 2.04044 55.2933 1.49414 51 1.49414C23.6588 1.49414 1.49414 23.6588 1.49414 51C1.49414 78.3412 23.6588 100.506 51 100.506C53.049 100.506 55.07 100.381 57.0536 100.139C35.5372 82.0789 32.317 63.5337 33.7256 50.5681C34.6539 42.0243 39.0134 34.201 45.8164 28.9498Z" fill="#FF737D"/>
<path d="M66.0792 48.3915L77.5537 36.917C80.9832 33.4875 80.9832 27.8759 77.5537 24.4471C74.1242 21.0176 68.5126 21.0176 65.0831 24.4471L53.6086 35.9217C52.1681 37.3621 49.8327 37.3621 48.3915 35.9217L36.917 24.4471C33.4882 21.0176 27.8767 21.0176 24.4471 24.4471C21.0176 27.8759 21.0176 33.4875 24.4471 36.917L35.9217 48.3915C37.3621 49.832 37.3621 52.1681 35.9217 53.6086L24.4471 65.0831C21.0176 68.5126 21.0176 74.1242 24.4471 77.5529C27.8767 80.9825 33.4882 80.9825 36.917 77.5529L48.3915 66.0784C49.8327 64.638 52.1681 64.638 53.6086 66.0784L65.0831 77.5529C68.5126 80.9825 74.1242 80.9825 77.5537 77.5529C80.9832 74.1242 80.9832 68.5126 77.5537 65.0831L66.0792 53.6086C64.638 52.1681 64.638 49.832 66.0792 48.3915Z" fill="white"/>
<path d="M43.4461 30.9754L36.917 24.4463C33.4882 21.0168 27.8767 21.0168 24.4471 24.4463C21.0176 27.8758 21.0176 33.4874 24.4471 36.9169L34.3598 46.8296C35.7629 40.7729 38.9201 35.2485 43.4461 30.9754Z" fill="#BDFAFF"/>
<path d="M36.9169 77.5529L38.0578 76.4129C34.671 69.0908 33.4765 62.1633 33.4415 56.0879L24.4463 65.0831C21.0168 68.5126 21.0168 74.1242 24.4463 77.5529C27.8758 80.9825 33.4874 80.9825 36.9169 77.5529Z" fill="#CCF8FF"/>
<path d="M51 102C37.3776 102 24.5701 96.695 14.9375 87.0625C5.30498 77.4299 0 64.6224 0 51C0 37.3776 5.30498 24.5701 14.9375 14.9375C24.5701 5.30498 37.3776 0 51 0C60.0964 0 69.0254 2.42487 76.823 7.01157C84.3909 11.4636 90.7224 17.8301 95.1316 25.4214C95.5464 26.135 95.3036 27.0494 94.59 27.4642C93.8764 27.879 92.962 27.6362 92.5472 26.9225C88.3955 19.774 82.4345 13.7796 75.3086 9.5874C67.9694 5.26996 59.5641 2.98828 51 2.98828C38.1753 2.98828 26.1187 7.98198 17.0503 17.0503C7.98198 26.1187 2.98828 38.1753 2.98828 51C2.98828 63.8247 7.98198 75.8813 17.0503 84.9497C26.1187 94.018 38.1753 99.0117 51 99.0117C63.8247 99.0117 75.8813 94.018 84.9497 84.9497C94.018 75.8813 99.0117 63.8247 99.0117 51C99.0117 44.6982 97.8102 38.573 95.4398 32.7941C95.127 32.0306 95.4919 31.1575 96.2553 30.8447C97.0188 30.5311 97.8919 30.8968 98.2047 31.6602C100.723 37.8002 102 44.3075 102 51C102 64.6224 96.695 77.4299 87.0625 87.0625C77.4299 96.695 64.6224 102 51 102Z" fill="black"/>
<path d="M64.0263 78.6097L52.5518 67.1351C51.6965 66.2799 50.3036 66.2791 49.4483 67.1351L37.9738 78.6097C33.9528 82.6306 27.4105 82.6306 23.3903 78.6097C19.3694 74.5887 19.3694 68.0464 23.3903 64.0262C23.974 63.4426 24.9195 63.4426 25.5032 64.0262C26.0868 64.6099 26.0868 65.5554 25.5032 66.139C24.1265 67.5157 21.6838 72.8681 25.5032 76.4961C29.3226 80.1248 34.4843 77.8727 35.8602 76.4961L47.3347 65.0215C49.3557 63.0013 52.6444 63.0013 54.6646 65.0215L66.1391 76.4961C67.5157 77.8727 72.5709 80.6268 76.4969 76.4961C80.9225 71.8409 77.8736 67.5157 76.4969 66.139L65.0224 54.6645C63.0014 52.6435 63.0014 49.3556 65.0224 47.3347L76.4969 35.8601C77.8736 34.4835 80.3428 29.3303 76.4969 25.5023C71.9445 20.9709 67.5157 24.1264 66.1391 25.5023L54.6646 36.9768C52.6444 38.9978 49.3557 38.9978 47.3347 36.9768L35.8602 25.5023C34.4843 24.1264 29.8152 21.609 25.5032 25.5023C21.1904 29.3964 24.1265 34.4835 25.5032 35.8601L36.9777 47.3347C38.9987 49.3556 38.9987 52.6435 36.9777 54.6645L29.9124 61.729C29.3288 62.3126 28.3833 62.3126 27.7996 61.729C27.216 61.1453 27.216 60.1998 27.7996 59.6162L34.8649 52.5517C35.7201 51.6957 35.7201 50.3035 34.8649 49.4475L23.3903 37.9729C19.3694 33.9528 19.3694 27.4104 23.3903 23.3895C27.4113 19.3685 33.9528 19.3685 37.9738 23.3895L49.4483 34.864C50.3043 35.72 51.6965 35.72 52.5518 34.864L64.0271 23.3895C68.0473 19.3693 74.5896 19.3693 78.6105 23.3895C82.6307 27.4104 82.6307 33.9528 78.6105 37.9729L67.1352 49.4482C66.28 50.3035 66.28 51.6957 67.1352 52.5517L78.6097 64.0262C82.6307 68.0472 82.6307 74.5887 78.6097 78.6097C76.5997 80.6205 70.041 84.5582 64.0263 78.6097Z" fill="black"/>
</svg>
