<svg width="97" height="97" viewBox="0 0 97 97" fill="none" xmlns="http://www.w3.org/2000/svg">
<path d="M87.5976 20.9696V9.40234H76.0302C76.0302 13.8103 72.4567 17.3838 68.0487 17.3838C63.6407 17.3838 60.0672 13.8103 60.0672 9.40234H48.5L39.0349 31.8118L48.5 48.5L68.0377 62.9806L87.5976 48.5V36.9325C92.0056 36.9325 95.5791 33.3591 95.5791 28.9511C95.5791 24.5431 92.0056 20.9696 87.5976 20.9696Z" fill="#49C3E0"/>
<path d="M48.5 48.5L29.8588 32.9419L9.40237 48.5V60.0674C4.99436 60.0674 1.4209 63.6409 1.4209 68.0489C1.4209 72.4569 4.99436 76.0304 9.40237 76.0304V87.5978H20.9698C20.9698 83.1898 24.5433 79.6163 28.9513 79.6163C33.3593 79.6163 36.9328 83.1898 36.9328 87.5978H48.5L57.7148 72.0397L48.5 48.5Z" fill="#3AC7B4"/>
<path d="M87.5977 60.0674V48.5H76.0302C76.0302 52.908 72.4568 56.4815 68.0487 56.4815C63.6407 56.4815 60.0673 52.908 60.0673 48.5H48.5V60.0674C44.092 60.0674 40.5186 63.6409 40.5186 68.0489C40.5186 72.4569 44.092 76.0304 48.5 76.0304V87.5978H60.0675C60.0675 92.0058 63.6409 95.5793 68.0489 95.5793C72.4569 95.5793 76.0304 92.0058 76.0304 87.5978H87.5978V76.0304C83.1898 76.0304 79.6164 72.4569 79.6164 68.0489C79.6164 63.6409 83.1897 60.0674 87.5977 60.0674Z" fill="#DA5B65"/>
<path d="M48.5 20.9698V9.40237H36.9325C36.9325 4.99436 33.3591 1.4209 28.9511 1.4209C24.5431 1.4209 20.9696 4.99436 20.9696 9.40237H9.40234V20.9698C13.8103 20.9698 17.3838 24.5433 17.3838 28.9513C17.3838 33.3593 13.8103 36.9328 9.40234 36.9328V48.5H20.9698C20.9698 44.092 24.5432 40.5185 28.9513 40.5185C33.3593 40.5185 36.9327 44.092 36.9327 48.5H48.5V36.9326C52.908 36.9326 56.4814 33.3591 56.4814 28.9511C56.4814 24.5431 52.908 20.9698 48.5 20.9698Z" fill="#FFCD38"/>
<path d="M89.0185 19.656V9.40237C89.0185 8.61747 88.3823 7.98147 87.5976 7.98147H76.0302C75.2455 7.98147 74.6093 8.61747 74.6093 9.40237C74.6093 13.0198 71.6661 15.9629 68.0487 15.9629C64.4313 15.9629 61.4881 13.0198 61.4881 9.40237C61.4881 8.61747 60.852 7.98147 60.0672 7.98147H38.2464C37.5595 3.4687 33.6527 0 28.9511 0C24.2494 0 20.3427 3.4687 19.656 7.98147H9.40237C8.61765 7.98147 7.98147 8.61747 7.98147 9.40237V20.9698C7.98147 21.7545 8.61765 22.3907 9.40237 22.3907C13.02 22.3907 15.9629 25.3337 15.9629 28.9513C15.9629 32.5687 13.0198 35.5119 9.40237 35.5119C8.61765 35.5119 7.98147 36.1478 7.98147 36.9328V58.7538C3.4687 59.4405 0 63.3471 0 68.0489C0 72.7504 3.4687 76.6573 7.98147 77.344V87.5976C7.98147 88.3823 8.61765 89.0185 9.40237 89.0185H20.9698C21.7545 89.0185 22.3907 88.3823 22.3907 87.5976C22.3907 83.9802 25.3339 81.0371 28.9513 81.0371C32.5687 81.0371 35.5119 83.9802 35.5119 87.5976C35.5119 88.3823 36.148 89.0185 36.9328 89.0185H58.7538C59.4405 93.5311 63.3473 97 68.0489 97C72.7506 97 76.6573 93.5311 77.344 89.0185H87.5976C88.3823 89.0185 89.0185 88.3823 89.0185 87.5976V76.0304C89.0185 75.2455 88.3823 74.6095 87.5976 74.6095C83.9802 74.6095 81.0371 71.6663 81.0371 68.0489C81.0371 64.4313 83.9802 61.4883 87.5976 61.4883C88.3823 61.4883 89.0185 60.8522 89.0185 60.0674V38.2462C93.5313 37.5595 97 33.6526 97 28.9511C97 24.2496 93.5313 20.3429 89.0185 19.656ZM10.8233 38.2462C15.336 37.5595 18.8047 33.6526 18.8047 28.9511C18.8047 24.2494 15.3359 20.3427 10.8233 19.656V10.8233H20.9698C21.7545 10.8233 22.3907 10.1871 22.3907 9.40237C22.3907 5.78476 25.3337 2.8418 28.9511 2.8418C32.5685 2.8418 35.5117 5.78476 35.5117 9.40237C35.5117 10.1871 36.1478 10.8233 36.9326 10.8233H47.0791V20.9698C47.0791 21.7545 47.7153 22.3907 48.5 22.3907C52.1174 22.3907 55.0606 25.3337 55.0606 28.9513C55.0606 32.5687 52.1174 35.5119 48.5 35.5119C47.7153 35.5119 47.0791 36.1478 47.0791 36.9328V47.0791H38.2464C37.5595 42.5663 33.6527 39.0976 28.9513 39.0976C24.2498 39.0976 20.3429 42.5663 19.6561 47.0791H10.8233V38.2462ZM28.9511 78.1953C24.2496 78.1953 20.3427 81.664 19.656 86.1767H10.8233V76.0304C10.8233 75.2455 10.1871 74.6095 9.40237 74.6095C5.78495 74.6093 2.8418 71.6663 2.8418 68.0489C2.8418 64.4313 5.78495 61.4883 9.40237 61.4883C10.1871 61.4883 10.8233 60.8522 10.8233 60.0674V49.9209H20.9698C21.7545 49.9209 22.3907 49.2847 22.3907 48.5C22.3907 44.8824 25.3339 41.9394 28.9513 41.9394C32.5687 41.9394 35.5119 44.8826 35.5119 48.5C35.5119 49.2847 36.148 49.9209 36.9328 49.9209H47.0791V58.7536C42.5663 59.4405 39.0976 63.3471 39.0976 68.0487C39.0976 72.7502 42.5663 76.6571 47.0791 77.3439V86.1765H38.2464C37.5595 81.664 33.6527 78.1953 28.9511 78.1953ZM86.1767 58.7536C81.664 59.4405 78.1953 63.3471 78.1953 68.0487C78.1953 72.7502 81.664 76.6571 86.1767 77.3439V86.1765H76.0302C75.2455 86.1765 74.6093 86.8127 74.6093 87.5974C74.6093 91.2149 71.6661 94.158 68.0487 94.158C64.4313 94.158 61.4881 91.2149 61.4881 87.5974C61.4881 86.8127 60.852 86.1765 60.0672 86.1765H49.9209V76.0302C49.9209 75.2453 49.2847 74.6093 48.5 74.6093C44.8826 74.6093 41.9394 71.6661 41.9394 68.0487C41.9394 64.4311 44.8826 61.4881 48.5 61.4881C49.2847 61.4881 49.9209 60.852 49.9209 60.0672V49.9209H58.7536C59.4405 54.4335 63.3473 57.9024 68.0487 57.9024C72.7502 57.9024 76.6571 54.4335 77.3439 49.9209H86.1765V58.7536H86.1767ZM87.5976 35.5117C86.8129 35.5117 86.1767 36.1477 86.1767 36.9326V47.0791H76.0302C75.2455 47.0791 74.6093 47.7151 74.6093 48.5C74.6093 52.1174 71.6661 55.0606 68.0487 55.0606C64.4313 55.0606 61.4883 52.1174 61.4883 48.5C61.4883 47.7151 60.8522 47.0791 60.0674 47.0791H49.9209V38.2462C54.4337 37.5595 57.9024 33.6526 57.9024 28.9511C57.9024 24.2494 54.4337 20.3427 49.9209 19.656V10.8233H58.7536C59.4405 15.3359 63.3473 18.8047 68.0487 18.8047C72.7502 18.8047 76.6571 15.3359 77.3439 10.8233H86.1765V20.9698C86.1765 21.7545 86.8127 22.3907 87.5974 22.3907C91.2149 22.3907 94.158 25.3337 94.158 28.9513C94.1582 32.5687 91.215 35.5117 87.5976 35.5117Z" fill="black"/>
</svg>
