<svg width="96" height="96" viewBox="0 0 96 96" fill="none" xmlns="http://www.w3.org/2000/svg">
<path d="M20.0989 65.7246L3.50497 82.3185C0.694715 85.1288 0.694715 89.685 3.50497 92.4953C6.31522 95.3055 10.8715 95.3055 13.6817 92.4953L30.2757 75.9014L20.0989 65.7246Z" fill="#FADC60"/>
<path d="M30.2754 75.9015L20.0993 65.7253L12.9226 72.902L23.0988 83.0781L30.2754 75.9015Z" fill="#F2C42C"/>
<path d="M85.7623 10.2376C73.9751 -1.54958 54.8641 -1.54958 43.0769 10.2376L9.40851 43.9059C4.56895 48.7454 4.56895 56.5917 9.40851 61.4313L34.5686 86.5912C39.4081 91.4307 47.2544 91.4307 52.0938 86.5912L85.7623 52.9229C97.5496 41.1357 97.5496 22.0248 85.7623 10.2376Z" fill="#B6A4FF"/>
<path d="M85.7623 10.2376C85.0915 9.56674 84.3959 8.93618 83.6802 8.34143C93.5312 20.1991 92.9007 37.8284 81.7842 48.9447L48.1159 82.613C43.2764 87.4525 35.43 87.4525 30.5907 82.613L34.5689 86.5912C39.4084 91.4307 47.2547 91.4307 52.0941 86.5912L85.7623 52.9229C97.5497 41.1357 97.5497 22.0248 85.7623 10.2376Z" fill="#937FE6"/>
<path d="M64.5757 14.7524C62.4277 12.6044 58.9453 12.6044 56.7973 14.7524L27.3628 44.1867C25.2148 46.3347 25.2148 49.8171 27.3628 51.9651C29.5108 54.1129 32.9932 54.1129 35.1412 51.9651L64.5757 22.5306C66.7235 20.3826 66.7235 16.9002 64.5757 14.7524Z" fill="#937FE6"/>
<path d="M81.2478 31.4241C83.3958 33.5721 83.3958 37.0545 81.2478 39.2025L51.8134 68.637C49.6654 70.785 46.1829 70.785 44.0349 68.637C41.8869 66.489 41.8869 63.0066 44.0349 60.8586L73.4694 31.4241C75.6174 29.2761 79.0998 29.2761 81.2478 31.4241Z" fill="#937FE6"/>
<path d="M65.5757 23.5321C68.2686 20.8393 68.2686 16.4576 65.5757 13.7647C62.9179 11.1067 58.4609 11.1118 55.8081 13.7645C55.8081 13.7645 26.4068 43.1658 26.3736 43.199C23.7079 45.8647 23.7117 50.3047 26.3736 52.9665C29.0356 55.6282 33.4825 55.6252 36.1412 52.9665L65.5757 23.5321ZM31.2572 52.151C30.2011 52.151 29.1451 51.7597 28.3628 50.9776C26.7809 49.3959 26.7833 46.7677 28.3626 45.1882C28.3626 45.1882 57.7613 15.7895 57.7971 15.7537C59.3768 14.174 62.008 14.1751 63.5866 15.7537C65.1827 17.3499 65.1827 19.9468 63.5866 21.5431C63.5866 21.5431 34.1759 50.9537 34.1521 50.9776C33.3696 51.7599 32.3134 52.151 31.2572 52.151Z" fill="black"/>
<path d="M47.9294 71.6067C49.7072 71.6089 51.4911 70.9609 52.8134 69.6387L82.2479 40.2042C84.9407 37.5113 84.9407 33.1296 82.2479 30.4367C79.5867 27.7756 75.1377 27.7793 72.4804 30.4367L43.0459 59.8712C40.3531 62.5641 40.3531 66.9458 43.0459 69.6387C44.3472 70.9399 46.1352 71.6044 47.9294 71.6067ZM45.0349 61.8602C45.0349 61.8602 74.4396 32.4556 74.4694 32.4257C76.0491 30.8461 78.6801 30.8474 80.2587 32.4257C81.8549 34.0219 81.8549 36.6188 80.2587 38.2152C80.2587 38.2152 50.8424 67.6315 50.8242 67.6497C49.246 69.2279 46.6112 69.226 45.0349 67.6497C43.4387 66.0533 43.4387 63.4562 45.0349 61.8602Z" fill="black"/>
<path d="M19.482 53.5865L17.5858 55.4826C17.0365 56.032 17.0365 56.9226 17.5858 57.4716C18.129 58.0148 19.0326 58.0143 19.5748 57.4716L21.471 55.5755C22.0204 55.0261 22.0204 54.1355 21.471 53.5865C20.9218 53.0373 20.0312 53.0373 19.482 53.5865Z" fill="black"/>
<path d="M39.5351 78.8329C39.897 78.8329 40.2586 78.6971 40.5294 78.4264L42.4256 76.5302C42.9749 75.9808 42.9749 75.0902 42.4256 74.5412C41.8762 73.9918 40.9856 73.9918 40.4366 74.5412L38.5404 76.4374C37.991 76.9867 37.991 77.877 38.5404 78.4264C38.8117 78.6977 39.1736 78.8331 39.5351 78.8329Z" fill="black"/>
<path d="M26.6982 62.8335C25.9215 62.7805 25.2525 63.3675 25.2004 64.1425C25.0815 65.91 25.7562 67.6665 27.051 68.9614C28.2482 70.1586 29.8399 70.8255 31.4706 70.8255C32.3683 70.8255 33.2481 70.3399 33.1793 69.3145C33.1273 68.5395 32.4583 67.9514 31.6817 68.0055C30.7243 68.0695 29.7613 67.6934 29.0404 66.9724C28.3195 66.2515 27.943 65.2888 28.0073 64.3313C28.0592 63.556 27.4731 62.8855 26.6982 62.8335Z" fill="black"/>
<path d="M8.59887 95.9839C10.8116 95.9837 13.0241 95.1542 14.6814 93.4967L27.0822 81.0956L33.5795 87.5929C36.2696 90.2829 39.803 91.6281 43.3366 91.6281C46.8702 91.6281 50.4037 90.2831 53.0937 87.5929L60.6234 80.0632C61.1727 79.5139 61.1727 78.6232 60.6234 78.0742C60.074 77.5249 59.1834 77.5249 58.6344 78.0742L51.1047 85.6039C46.8215 89.8871 39.8517 89.8871 35.5685 85.6039L10.4084 60.4436C6.12518 56.1604 6.12518 49.1906 10.4084 44.9074L44.0769 11.2391C48.4323 6.88369 53.9435 4.08694 60.0155 3.15076C60.7833 3.03244 61.3094 2.31394 61.1913 1.54613C61.073 0.77832 60.3554 0.252757 59.5867 0.37032C52.9197 1.39838 46.8689 4.46888 42.0879 9.24994L8.41943 42.9182C3.03912 48.2983 3.03912 57.0527 8.41943 62.4326L14.9167 68.9299L2.51561 81.3309C-0.838385 84.6849 -0.838385 90.1425 2.51543 93.4967C4.17405 95.1553 6.38674 95.9841 8.59887 95.9839ZM4.50461 83.3199L16.9055 70.9191L25.0932 79.1066C25.0932 79.1066 12.7038 91.4962 12.6924 91.5077C10.4626 93.7374 6.7308 93.7335 4.50461 91.5077C2.2473 89.2502 2.2473 85.5772 4.50461 83.3199Z" fill="black"/>
<path d="M63.6073 76.4901C63.9673 76.4906 64.3292 76.3577 64.6018 76.0851L86.7622 53.9246C99.0791 41.6077 99.0791 21.5668 86.7622 9.24993C81.0737 3.56137 73.5131 0.282179 65.4735 0.0166789C64.6935 -0.00732109 64.0472 0.599804 64.0213 1.37605C63.9956 2.15249 64.6044 2.80255 65.3807 2.82843C72.7042 3.0703 79.5913 6.05718 84.7732 11.2391C95.9932 22.4593 95.9932 40.7154 84.7732 51.9354L62.6128 74.0959C62.0634 74.6452 62.0634 75.5359 62.6128 76.0849C62.88 76.3524 63.243 76.4895 63.6073 76.4901Z" fill="black"/>
</svg>
