<svg width="96" height="96" viewBox="0 0 96 96" fill="none" xmlns="http://www.w3.org/2000/svg">
<path d="M60.9694 36.4422L36.3058 63.5151C33.2957 66.8194 35.6399 72.1264 40.1099 72.1264H89.4373C93.9073 72.1264 96.2518 66.8192 93.2414 63.5151L68.5775 36.4422C66.5364 34.2017 63.0106 34.2017 60.9694 36.4422Z" fill="#EFD176"/>
<path d="M68.5775 36.4423C68.0894 35.9066 67.5166 35.499 66.8994 35.2196C65.4656 34.5705 63.787 35.3721 63.3106 36.872L54.2753 65.3184C53.2049 68.6884 55.7203 72.1266 59.2563 72.1266H89.437C93.907 72.1266 96.2514 66.8195 93.241 63.5151L68.5775 36.4423Z" fill="#F7EF87"/>
<path d="M66.505 54.6897H64.7738C63.997 54.6897 63.3675 54.0601 63.3675 53.2834C63.3675 52.5068 63.997 51.8772 64.7738 51.8772H66.505C67.2818 51.8772 67.9112 52.5068 67.9112 53.2834C67.9112 54.0603 67.2816 54.6897 66.505 54.6897Z" fill="#EFD176"/>
<path d="M71.8902 48.9746H70.2072C69.4304 48.9746 68.801 48.345 68.801 47.5684C68.801 46.7917 69.4304 46.1621 70.2072 46.1621H71.8902C72.667 46.1621 73.2965 46.7917 73.2965 47.5684C73.2965 48.345 72.667 48.9746 71.8902 48.9746Z" fill="#EFD176"/>
<path d="M54.43 51.9764H53.2289C52.4521 51.9764 51.8226 51.3468 51.8226 50.5702C51.8226 49.7936 52.4521 49.1639 53.2289 49.1639H54.43C55.2068 49.1639 55.8362 49.7936 55.8362 50.5702C55.8362 51.3468 55.2068 51.9764 54.43 51.9764Z" fill="#F7EF87"/>
<path d="M65.2161 66.0017C67.0534 66.0017 68.5428 64.8155 68.5428 63.3524C68.5428 61.8892 67.0534 60.7031 65.2161 60.7031C63.3788 60.7031 61.8894 61.8892 61.8894 63.3524C61.8894 64.8155 63.3788 66.0017 65.2161 66.0017Z" fill="#EDA1AB"/>
<path d="M83.2481 66.0017C85.0854 66.0017 86.5748 64.8155 86.5748 63.3524C86.5748 61.8892 85.0854 60.7031 83.2481 60.7031C81.4108 60.7031 79.9214 61.8892 79.9214 63.3524C79.9214 64.8155 81.4108 66.0017 83.2481 66.0017Z" fill="#EDA1AB"/>
<path d="M29.4538 43.205L2.86696 72.389C-0.378167 75.951 2.14905 81.672 6.96761 81.672H60.1415C64.96 81.672 67.4872 75.951 64.2421 72.389L37.6553 43.205C35.4549 40.7897 31.6542 40.7897 29.4538 43.205Z" fill="#EFD176"/>
<path d="M37.6553 43.2052C37.1292 42.6277 36.5118 42.1884 35.8464 41.8873C34.3009 41.1875 32.4914 42.0515 31.9777 43.6684L22.2378 74.3331C21.084 77.9659 23.7955 81.6721 27.607 81.6721H60.1413C64.9599 81.6721 67.4871 75.9511 64.242 72.3891L37.6553 43.2052Z" fill="#F7EF87"/>
<path d="M31.024 76.1261C33.0894 76.1261 34.7637 74.7927 34.7637 73.1479C34.7637 71.5032 33.0894 70.1698 31.024 70.1698C28.9586 70.1698 27.2842 71.5032 27.2842 73.1479C27.2842 74.7927 28.9586 76.1261 31.024 76.1261Z" fill="#EDA1AB"/>
<path d="M51.2943 76.1261C53.3597 76.1261 55.034 74.7927 55.034 73.1479C55.034 71.5032 53.3597 70.1698 51.2943 70.1698C49.2289 70.1698 47.5546 71.5032 47.5546 73.1479C47.5546 74.7927 49.2289 76.1261 51.2943 76.1261Z" fill="#EDA1AB"/>
<path d="M36.5968 54.2871H34.9833C34.2065 54.2871 33.5771 53.6575 33.5771 52.8809C33.5771 52.1042 34.2065 51.4746 34.9833 51.4746H36.5968C37.3734 51.4746 38.003 52.1042 38.003 52.8809C38.003 53.6577 37.3736 54.2871 36.5968 54.2871Z" fill="#EFD176"/>
<path d="M21.2672 62.9391H19.6539C18.8771 62.9391 18.2477 62.3095 18.2477 61.5328C18.2477 60.7562 18.8771 60.1266 19.6539 60.1266H21.2672C22.044 60.1266 22.6734 60.7562 22.6734 61.5328C22.6734 62.3095 22.044 62.9391 21.2672 62.9391Z" fill="#F7EF87"/>
<path d="M12.249 74.2542H10.6357C9.8589 74.2542 9.22946 73.6245 9.22946 72.8479C9.22946 72.0713 9.8589 71.4417 10.6357 71.4417H12.249C13.0258 71.4417 13.6552 72.0713 13.6552 72.8479C13.6552 73.6245 13.0256 74.2542 12.249 74.2542Z" fill="#F7EF87"/>
<path d="M44.6411 61.1261H43.0277C42.2509 61.1261 41.6215 60.4965 41.6215 59.7198C41.6215 58.9432 42.2509 58.3136 43.0277 58.3136H44.6411C45.418 58.3136 46.0474 58.9432 46.0474 59.7198C46.0474 60.4965 45.418 61.1261 44.6411 61.1261Z" fill="#EFD176"/>
<path d="M16.6379 36.6203C22.7939 36.6203 27.7842 31.6299 27.7842 25.474C27.7842 19.3181 22.7939 14.3278 16.6379 14.3278C10.482 14.3278 5.4917 19.3181 5.4917 25.474C5.4917 31.6299 10.482 36.6203 16.6379 36.6203Z" fill="#EEA849"/>
<path d="M33.2037 66.7209C31.4469 66.7209 30.0174 68.1502 30.0174 69.907C30.0174 70.6836 30.6468 71.3132 31.4236 71.3132C32.2004 71.3132 32.8298 70.6836 32.8298 69.907C32.8298 69.7009 32.9976 69.5333 33.2037 69.5333C33.4097 69.5333 33.5774 69.7009 33.5774 69.907C33.5774 70.6836 34.2068 71.3132 34.9836 71.3132C35.7603 71.3132 36.3897 70.6836 36.3897 69.907C36.3897 68.1502 34.9605 66.7209 33.2037 66.7209ZM43.9712 70.9275C43.3858 70.417 42.4975 70.4781 41.9872 71.0636C41.7747 71.3074 41.4807 71.4416 41.1592 71.4416C40.8423 71.4416 40.5405 71.304 40.3314 71.0638C39.8209 70.4781 38.9329 70.4171 38.3474 70.9273C37.7618 71.4375 37.7007 72.3256 38.2107 72.9112C38.9543 73.7644 40.0288 74.2538 41.159 74.2538C42.289 74.2538 43.3635 73.7644 44.1073 72.9114C44.6175 72.326 44.5567 71.4379 43.9712 70.9275ZM16.638 38.0265C23.5592 38.0265 29.1902 32.3955 29.1902 25.474C29.1902 24.2399 29.0113 23.0203 28.6585 21.849C28.4344 21.1053 27.6488 20.6841 26.9064 20.9082C26.1628 21.1323 25.7415 21.9165 25.9653 22.6601C26.2389 23.5683 26.3776 24.515 26.3776 25.474C26.3776 30.8447 22.0083 35.2141 16.6378 35.2141C11.267 35.2141 6.89771 30.8447 6.89771 25.474C6.89771 20.1035 11.2672 15.734 16.6378 15.734C18.8054 15.734 20.8565 16.4303 22.5698 17.748C23.1856 18.2212 24.0681 18.1061 24.5417 17.4906C25.0151 16.875 24.8998 15.9921 24.2843 15.5185C22.0752 13.8195 19.431 12.9214 16.6378 12.9214C9.71628 12.9214 4.08532 18.5524 4.08532 25.4738C4.08532 32.3953 9.71647 38.0265 16.638 38.0265ZM79.9032 59.5349V60.7097C79.9032 61.4863 80.5326 62.1159 81.3094 62.1159C82.0862 62.1159 82.7156 61.4863 82.7156 60.7097V59.5349C82.7156 58.7583 82.0862 58.1287 81.3094 58.1287C80.5326 58.1287 79.9032 58.7583 79.9032 59.5349ZM94.2807 62.568L69.617 35.4951C69.0412 34.8631 68.3509 34.3584 67.5928 33.9969C67.5561 33.9761 67.5186 33.9562 67.4796 33.9386C67.3973 33.9013 67.3137 33.8681 67.2293 33.8368C66.4559 33.5238 65.623 33.3557 64.7735 33.3557C62.934 33.3557 61.1686 34.1354 59.93 35.4953L46.2318 50.5315L38.6946 42.258C38.0839 41.5877 37.3518 41.0522 36.548 40.6686C36.5088 40.6461 36.4683 40.6249 36.4263 40.606C36.3393 40.5666 36.2508 40.5316 36.1618 40.4984C35.3407 40.1659 34.4565 39.9873 33.5547 39.9873C31.6027 39.9873 29.7291 40.815 28.4146 42.258L1.82753 71.442C-0.0543341 73.5076 -0.521753 76.3787 0.60714 78.9344C1.73622 81.4903 4.17344 83.0781 6.96764 83.0781H60.1415C62.9355 83.0781 65.3727 81.4905 66.502 78.9344C67.2855 77.1605 67.2985 75.2355 66.6049 73.5327H85.6373C86.4141 73.5327 87.0435 72.9031 87.0435 72.1265C87.0435 71.3499 86.4141 70.7203 85.6373 70.7203H64.6243L56.7728 62.1018L64.6513 37.2977C64.7632 36.945 65.0216 36.6563 65.3598 36.5055C65.5426 36.4242 65.9107 36.3152 66.3196 36.5007C66.3213 36.5014 66.3231 36.502 66.325 36.5027C66.7778 36.7091 67.1897 37.0063 67.5383 37.389L92.202 64.4618C92.931 65.262 93.2741 66.2784 93.1682 67.3237C93.06 68.3924 92.4855 69.4021 91.632 70.0245C91.0045 70.482 90.8667 71.3617 91.3243 71.9893C91.5996 72.3669 92.0276 72.5671 92.4615 72.5671C92.7489 72.5671 93.039 72.4794 93.2889 72.2971C94.7999 71.1952 95.7758 69.4859 95.9661 67.6072C96.1538 65.7564 95.5551 63.9668 94.2807 62.568ZM6.96764 80.2658C4.97853 80.2658 3.70677 78.991 3.17973 77.798C2.65287 76.605 2.567 74.8063 3.90645 73.3358L30.2713 44.3958L20.8978 73.9071C20.2106 76.071 20.5852 78.3627 21.9256 80.1951C21.9432 80.2193 21.9626 80.2418 21.9806 80.2658H6.96764ZM63.2027 73.336C64.5423 74.8063 64.4565 76.6051 63.9294 77.7982C63.4024 78.9912 62.1304 80.2659 60.1415 80.2659H27.6072C26.244 80.2659 25.0005 79.6348 24.1956 78.5346C23.3905 77.4344 23.1657 76.0582 23.5784 74.7587L33.3181 44.0941C33.4482 43.6841 33.7485 43.3484 34.1419 43.1733C34.5111 43.0087 34.9104 43.007 35.2667 43.1683C35.274 43.1716 35.2815 43.1739 35.289 43.1771C35.784 43.4054 36.2339 43.733 36.616 44.1522L45.1807 53.5535C45.1832 53.5561 45.1856 53.5587 45.188 53.5616L63.2027 73.336ZM54.5846 59.7001L48.1339 52.6194L61.4901 37.9586L54.5846 59.7001ZM75.0382 59.8379C74.8312 60.075 74.5451 60.2055 74.2321 60.2055C73.9237 60.2055 73.6301 60.0715 73.4263 59.8379C72.9161 59.2523 72.0278 59.1914 71.4424 59.7017C70.8569 60.2121 70.7962 61.1004 71.3065 61.6858C72.0445 62.5325 73.1108 63.0181 74.2321 63.0181C75.3537 63.0181 76.4202 62.5325 77.1583 61.6858C77.6685 61.1004 77.6078 60.2121 77.022 59.7017C76.4367 59.1914 75.548 59.2523 75.0382 59.8379ZM47.3348 71.3134C48.1116 71.3134 48.741 70.6838 48.741 69.9072C48.741 69.7011 48.9088 69.5335 49.1149 69.5335C49.3209 69.5335 49.4885 69.7011 49.4885 69.9072C49.4885 70.6838 50.1181 71.3134 50.8947 71.3134C51.6715 71.3134 52.3009 70.6838 52.3009 69.9072C52.3009 68.1504 50.8717 66.7211 49.1149 66.7211C47.3581 66.7211 45.9286 68.1504 45.9286 69.9072C45.9286 70.6838 46.558 71.3134 47.3348 71.3134ZM65.7488 59.5349V60.7097C65.7488 61.4863 66.3783 62.1159 67.155 62.1159C67.9318 62.1159 68.5612 61.4863 68.5612 60.7097V59.5349C68.5612 58.7583 67.9318 58.1287 67.155 58.1287C66.3783 58.1287 65.7488 58.7583 65.7488 59.5349Z" fill="black"/>
</svg>
