<svg width="95" height="95" viewBox="0 0 95 95" fill="none" xmlns="http://www.w3.org/2000/svg">
<path d="M75.9175 87.0419C74.3003 87.0419 72.6942 86.538 71.3252 85.5475L62.6015 79.2356L66.508 73.8366L75.2317 80.1487C75.7403 80.5168 76.2188 80.366 76.4587 80.2435C76.6986 80.1208 77.1013 79.8216 77.1013 79.1939V60.7683H83.7654V79.1939C83.7654 82.155 82.1272 84.8313 79.49 86.1782C78.3576 86.7564 77.1345 87.0419 75.9175 87.0419Z" fill="#76C9D2"/>
<path opacity="0.15" d="M75.9175 87.0419C74.3003 87.0419 72.6942 86.538 71.3252 85.5475L62.6015 79.2356L66.508 73.8366L75.2317 80.1487C75.7403 80.5168 76.2188 80.366 76.4587 80.2435C76.6986 80.1208 77.1013 79.8216 77.1013 79.1939V60.7683H83.7654V79.1939C83.7654 82.155 82.1272 84.8313 79.49 86.1782C78.3576 86.7564 77.1345 87.0419 75.9175 87.0419Z" fill="black"/>
<path d="M80.4333 64.703C78.5931 64.703 77.1013 63.2112 77.1013 61.371V56.2078C77.1013 54.3675 78.5931 52.8757 80.4333 52.8757C82.2736 52.8757 83.7654 54.3675 83.7654 56.2078V61.371C83.7654 63.2112 82.2736 64.703 80.4333 64.703Z" fill="#FFD4B8"/>
<path d="M27.0661 93.6084H21.9049C21.0749 93.6084 20.402 92.9356 20.402 92.1055V88.155C20.402 81.7416 23.9383 75.9225 29.6312 72.9688L32.7004 78.884C29.2249 80.6873 27.0661 84.2398 27.0661 88.155V93.6084Z" fill="#76C9D2"/>
<path opacity="0.15" d="M27.0661 93.6084H21.9049C21.0749 93.6084 20.402 92.9356 20.402 92.1055V88.155C20.402 81.7416 23.9383 75.9225 29.6312 72.9688L32.7004 78.884C29.2249 80.6873 27.0661 84.2398 27.0661 88.155V93.6084Z" fill="black"/>
<path d="M47.4999 59.4634C36.191 59.4634 27.0232 68.6311 27.0232 79.94V93.6085H66.4736C67.3035 93.6085 67.9765 92.9357 67.9765 92.1055V79.9401C67.9767 68.6311 58.8088 59.4634 47.4999 59.4634Z" fill="#76C9D2"/>
<path d="M47.5 65.8172L38.3321 70.1148C37.4864 70.5113 36.5156 69.894 36.5156 68.9602V61.7507L47.5 65.8172Z" fill="white"/>
<path d="M47.5 65.8172L56.6679 70.1148C57.5136 70.5113 58.4844 69.894 58.4844 68.9602V61.7507L47.5 65.8172Z" fill="white"/>
<path opacity="0.1" d="M47.5 59.4634C41.8869 59.4634 36.8021 61.7226 33.1033 65.3803C37.4362 67.5488 42.325 68.7712 47.5 68.7712C52.6751 68.7712 57.5639 67.549 61.8968 65.3803C58.1979 61.7226 53.113 59.4634 47.5 59.4634Z" fill="black"/>
<path d="M15.2872 39.3278C18.4247 39.3278 20.9681 36.7844 20.9681 33.647C20.9681 30.5095 18.4247 27.9661 15.2872 27.9661C12.1498 27.9661 9.60635 30.5095 9.60635 33.647C9.60635 36.7844 12.1498 39.3278 15.2872 39.3278Z" fill="#FFD4B8"/>
<path d="M79.7128 39.3278C82.8503 39.3278 85.3937 36.7844 85.3937 33.647C85.3937 30.5095 82.8503 27.9661 79.7128 27.9661C76.5754 27.9661 74.032 30.5095 74.032 33.647C74.032 36.7844 76.5754 39.3278 79.7128 39.3278Z" fill="#FFD4B8"/>
<path d="M47.5001 65.8172C65.2907 65.8172 79.7129 51.395 79.7129 33.6044C79.7129 15.8138 65.2907 1.3916 47.5001 1.3916C29.7094 1.3916 15.2873 15.8138 15.2873 33.6044C15.2873 51.395 29.7094 65.8172 47.5001 65.8172Z" fill="#FFD4B8"/>
<path d="M47.5001 1.3916C29.7095 1.3916 15.2873 15.8138 15.2873 33.6044C20.2941 33.6044 25.5883 28.2729 26.1351 17.3946C29.5646 21.2357 49.1872 28.8336 69.5946 22.7287C71.3107 30.0167 75.6075 33.6044 79.7129 33.6044C79.7129 15.8138 65.2907 1.3916 47.5001 1.3916Z" fill="#4A5058"/>
<path opacity="0.1" d="M52.274 61.7508C34.4834 61.7508 20.0612 47.3286 20.0612 29.538C20.0612 20.8425 23.5077 12.9533 29.1077 7.15771C20.7546 12.9779 15.2873 22.652 15.2873 33.6045C15.2873 51.3951 29.7095 65.8173 47.5001 65.8173C56.5954 65.8173 64.8088 62.0466 70.6663 55.9848C65.4512 59.6183 59.112 61.7508 52.274 61.7508Z" fill="#513130"/>
<path d="M62.3966 84.5669L60.422 85.7156C59.9734 85.9767 59.4191 85.9767 58.9705 85.7156L56.9959 84.5669C56.5517 84.3085 56.2784 83.8335 56.2784 83.3195V78.2804C56.2784 77.9336 56.5597 77.6523 56.9065 77.6523H62.4859C62.8326 77.6523 63.1139 77.9336 63.1139 78.2804V83.3195C63.1141 83.8335 62.8408 84.3086 62.3966 84.5669Z" fill="white"/>
<path d="M31.1658 29.0459C30.3972 29.0459 29.7742 29.6689 29.7742 30.4375V33.6467C29.7742 34.4152 30.3972 35.0383 31.1658 35.0383C31.9343 35.0383 32.5574 34.4152 32.5574 33.6467V30.4375C32.5574 29.6688 31.9343 29.0459 31.1658 29.0459ZM47.5 85.8433C48.2456 85.8433 48.8499 85.2389 48.8499 84.4934C48.8499 83.7479 48.2456 83.1437 47.5 83.1437C46.7545 83.1437 46.1502 83.7481 46.1502 84.4934C46.1504 85.2389 46.7545 85.8433 47.5 85.8433ZM47.5 75.9263C48.2456 75.9263 48.8499 75.322 48.8499 74.5767C48.8499 73.8311 48.2456 73.227 47.5 73.227C46.7545 73.227 46.1502 73.8313 46.1502 74.5767C46.1504 75.3222 46.7545 75.9263 47.5 75.9263ZM49.8951 40.0664C49.267 40.7368 48.4164 41.1061 47.5 41.1061C46.5838 41.1061 45.7332 40.7368 45.105 40.0664C44.5795 39.5057 43.6989 39.477 43.138 40.0024C42.5773 40.5279 42.5485 41.4085 43.074 41.9694C44.2171 43.1896 45.8303 43.8893 47.5 43.8893C49.1698 43.8893 50.7829 43.1896 51.9261 41.9694C52.4515 41.4085 52.4228 40.5279 51.862 40.0024C51.301 39.4768 50.4205 39.5057 49.8951 40.0664ZM58.2708 86.9189C58.7106 87.1746 59.2034 87.3024 59.6964 87.3024C60.1892 87.3024 60.6822 87.1746 61.122 86.9189L63.0965 85.7702C63.9658 85.2644 64.5058 84.3255 64.5058 83.3198V78.2807C64.5058 77.1671 63.5997 76.2611 62.4861 76.2611H56.9067C55.793 76.2611 54.887 77.1671 54.887 78.2807V83.3198C54.887 84.3255 55.4272 85.2645 56.2963 85.7702L58.2708 86.9189ZM57.67 79.0441H61.7224V83.3196C61.7224 83.338 61.7126 83.3551 61.6968 83.3644L59.7222 84.5131C59.7062 84.5225 59.6862 84.5224 59.6702 84.5131L57.6955 83.3644C57.6797 83.3553 57.6699 83.338 57.6699 83.3198V79.0441H57.67ZM80.4333 51.4842C77.8286 51.4842 75.7097 53.6032 75.7097 56.2079V78.7765L68.3796 73.4729C67.2318 69.7871 65.1203 66.4314 62.2441 63.7964C71.3554 59.3288 78.1598 50.8571 80.3505 40.6891C83.9526 40.3655 86.7853 37.3315 86.7853 33.6467C86.7853 29.9682 83.9622 26.9381 80.3693 26.6058C77.1402 11.4241 63.6304 0 47.5 0C42.7981 0 38.249 0.952598 33.979 2.83126C29.8551 4.64572 26.1879 7.23243 23.0796 10.5198C22.5516 11.0781 22.5763 11.9589 23.1346 12.4869C23.6931 13.0152 24.5739 12.9905 25.1017 12.432C30.9858 6.20988 38.9402 2.7832 47.5 2.7832C63.9651 2.7832 77.456 15.7607 78.2813 32.0243C75.5419 31.3173 72.3924 28.5386 70.9493 22.4096C70.8613 22.0365 70.6234 21.716 70.2915 21.524C69.9597 21.3321 69.5634 21.2856 69.1958 21.3954C58.2881 24.6586 48.2652 23.7582 41.7776 22.428C33.5 20.731 28.4265 17.8715 27.1732 16.4677C26.7973 16.0466 26.2044 15.8945 25.6719 16.0823C25.1396 16.2701 24.7735 16.761 24.7451 17.3247C24.5059 22.0805 23.3043 26.0294 21.27 28.7442C19.9649 30.4857 18.3875 31.6146 16.7232 32.0306C16.9854 26.864 18.5311 21.8552 21.2418 17.457C21.645 16.8028 21.4416 15.9455 20.7872 15.5421C20.133 15.139 19.2756 15.3425 18.8724 15.9967C16.8519 19.2752 15.4238 22.864 14.6298 26.6056C11.0371 26.9383 8.21455 29.9682 8.21455 33.6465C8.21455 37.3313 11.0475 40.3654 14.6493 40.6889C16.8401 50.8571 23.6444 59.3288 32.7557 63.7962C29.9716 66.3469 27.9039 69.5727 26.7332 73.1194C21.8888 76.5819 19.01 82.1665 19.01 88.1548V92.1055C19.01 93.7015 20.3085 95 21.9046 95H32.8858C33.6543 95 34.2774 94.3769 34.2774 93.6084C34.2774 92.8399 33.6543 92.2168 32.8858 92.2168H28.4149V79.9401C28.4149 74.3577 30.9012 69.0251 35.1239 65.4162V68.9604C35.1239 69.8777 35.5861 70.7192 36.3602 71.211C36.7966 71.4884 37.2914 71.6289 37.7891 71.6289C38.1739 71.6289 38.5606 71.5448 38.9228 71.3751L47.5 67.3543L56.0773 71.3749C56.4397 71.5448 56.826 71.6289 57.211 71.6289C57.7086 71.6289 58.2035 71.4884 58.6399 71.211C59.414 70.719 59.8762 69.8775 59.8762 68.9604V65.4162C64.0991 69.0249 66.5852 74.3575 66.5852 79.9401V92.1055C66.5852 92.1669 66.5353 92.2168 66.4739 92.2168H39.6549C38.8864 92.2168 38.2633 92.8399 38.2633 93.6084C38.2633 94.3769 38.8864 95 39.6549 95H66.4739C68.0699 95 69.3684 93.7015 69.3684 92.1055V85.849L70.5095 86.6747C72.0995 87.8253 73.9696 88.4333 75.9175 88.4333C77.3671 88.4333 78.8213 88.0819 80.1231 87.4171C83.228 85.8312 85.157 82.6801 85.157 79.1935V76.2972C85.157 75.5287 84.5339 74.9056 83.7654 74.9056C82.9968 74.9056 82.3737 75.5287 82.3737 76.2972V79.1935C82.3737 81.6293 81.0261 83.8306 78.8571 84.9385C77.9455 85.4041 76.9289 85.6501 75.9175 85.6501C74.5593 85.6501 73.2534 85.2246 72.141 84.4199L69.3684 82.4138V79.9399C69.3684 79.1287 69.3209 78.3225 69.2311 77.5241L74.4158 81.2755C74.8701 81.6043 75.3898 81.7711 75.9151 81.7711C76.3129 81.7711 76.7136 81.6755 77.092 81.4825C77.9694 81.0344 78.493 80.1787 78.493 79.1936V65.676C79.0855 65.9441 79.742 66.0948 80.4335 66.0948C81.125 66.0948 81.7815 65.9443 82.3739 65.676V70.2371C82.3739 71.0056 82.997 71.6287 83.7655 71.6287C84.5341 71.6287 85.1571 71.0056 85.1571 70.2371V56.2079C85.157 53.6032 83.038 51.4842 80.4333 51.4842ZM80.855 29.5129C82.6675 30.0142 84.0023 31.6769 84.0023 33.6467C84.0023 35.62 82.6625 37.2853 80.845 37.7833C81.0157 36.4138 81.1046 35.0194 81.1046 33.6044C81.1044 32.2195 81.0185 30.8544 80.855 29.5129ZM10.9979 33.6467C10.9979 31.6754 12.3348 30.0118 14.1493 29.5118C13.9841 30.8644 13.8956 32.2304 13.8956 33.6044C13.8956 35.0194 13.9845 36.4138 14.1552 37.7833C12.3376 37.2853 10.9979 35.62 10.9979 33.6467ZM25.632 79.9401V92.2168H21.9049C21.8435 92.2168 21.7936 92.1669 21.7936 92.1055V88.1548C21.7936 84.2579 23.2281 80.5628 25.7482 77.725C25.6725 78.4579 25.632 79.197 25.632 79.9401ZM37.9074 68.7772V65.8116C39.2905 66.2243 40.7105 66.5505 42.1615 66.7831L37.9074 68.7772ZM57.093 68.7772L52.839 66.783C54.2899 66.5503 55.7099 66.2241 57.093 65.8114V68.7772ZM47.5 64.4256C30.9309 64.4256 17.3757 51.2827 16.707 34.8748C19.2548 34.454 21.6266 32.9097 23.4973 30.4134C25.4663 27.7856 26.7611 24.2467 27.2951 20.0751C30.1269 21.8713 34.958 23.8712 41.2189 25.1548C47.7455 26.4928 57.6923 27.4142 68.6158 24.4547C70.3598 30.2759 73.9919 34.1725 78.2932 34.8791C77.6219 51.285 64.0679 64.4256 47.5 64.4256ZM82.3737 61.3709C82.3737 62.441 81.5034 63.3114 80.4333 63.3114C79.3633 63.3114 78.4929 62.441 78.4929 61.3709V56.2077C78.4929 55.1377 79.3633 54.2673 80.4333 54.2673C81.5034 54.2673 82.3737 55.1377 82.3737 56.2077V61.3709ZM63.8345 29.0459C63.0659 29.0459 62.4429 29.6689 62.4429 30.4375V33.6467C62.4429 34.4152 63.0659 35.0383 63.8345 35.0383C64.603 35.0383 65.2261 34.4152 65.2261 33.6467V30.4375C65.2261 29.6688 64.603 29.0459 63.8345 29.0459Z" fill="black"/>
</svg>
