<svg width="72" height="10" viewBox="0 0 72 10" fill="none" xmlns="http://www.w3.org/2000/svg">
<path d="M6.20731 6.516L6.97531 8.412C7.16731 8.892 7.25131 9.144 7.64731 9.144C7.99531 9.144 8.22331 8.844 8.22331 8.616C8.22331 8.436 8.16331 8.292 8.04331 7.992L5.22331 1.272C5.11531 1.008 4.95931 0.636 4.83931 0.504C4.71931 0.36 4.47931 0.263999 4.26331 0.263999C3.71131 0.263999 3.57931 0.611999 3.31531 1.284L0.591312 8.04C0.483313 8.316 0.423313 8.46 0.423313 8.64C0.423313 8.88 0.663313 9.144 0.975313 9.144C1.37131 9.144 1.45531 8.892 1.63531 8.436L2.37931 6.516H6.20731ZM2.70331 5.592L4.25131 1.572L5.85931 5.592H2.70331ZM14.649 7.176C14.649 6.876 14.397 6.696 14.169 6.696C13.833 6.696 13.701 7.092 13.509 7.44C13.185 8.016 12.573 8.328 11.913 8.328C10.737 8.328 10.005 7.404 10.005 5.856C10.005 4.38 10.773 3.456 11.937 3.456C12.993 3.456 13.401 4.176 13.557 4.44C13.797 4.848 13.929 4.86 14.061 4.86C14.301 4.86 14.529 4.668 14.529 4.404C14.529 3.888 13.797 2.64 11.925 2.64C9.57303 2.64 8.96103 4.464 8.96103 5.904C8.96103 6.828 9.18903 7.428 9.40503 7.812C9.70503 8.34 10.341 9.144 11.973 9.144C13.989 9.144 14.649 7.524 14.649 7.176ZM16.2988 2.784H15.9988C15.8668 2.784 15.4348 2.784 15.4348 3.156C15.4348 3.18 15.4348 3.54 15.9028 3.54H16.2988V7.32C16.2988 8.088 16.2988 9.108 17.7628 9.108C18.4108 9.108 18.9388 9 18.9388 8.592C18.9388 8.352 18.7828 8.22 18.5788 8.22C18.4948 8.22 18.0628 8.292 17.9668 8.292C17.3788 8.292 17.3428 7.86 17.3428 7.236V3.54H17.9308C18.2548 3.54 18.5428 3.432 18.5428 3.156C18.5428 2.784 18.1468 2.784 17.8948 2.784H17.3428V1.668C17.3428 1.224 17.3428 0.744 16.8148 0.744C16.6108 0.744 16.4428 0.875999 16.3828 0.983999C16.2988 1.14 16.2988 1.272 16.2988 1.728V2.784ZM20.8078 3.492C20.8078 3.06 20.8198 2.64 20.2918 2.64C19.8838 2.64 19.7518 2.868 19.7518 3.492V8.292C19.7518 8.664 19.7638 9.144 20.2798 9.144C20.6038 9.144 20.7958 9.012 20.8078 8.292V3.492ZM20.8558 1.02C20.8558 0.707999 20.6038 0.443999 20.2798 0.443999C19.9558 0.443999 19.7038 0.707999 19.7038 1.02C19.7038 1.344 19.9558 1.608 20.2798 1.608C20.6038 1.608 20.8558 1.344 20.8558 1.02ZM24.7961 7.812L23.0921 3.288C22.9361 2.88 22.8521 2.64 22.5161 2.64C22.1801 2.64 22.0001 2.904 22.0001 3.096C22.0001 3.252 22.0361 3.336 22.1561 3.648L24.0521 8.376C24.2441 8.844 24.3641 9.144 24.7961 9.144C25.2161 9.144 25.3361 8.844 25.5281 8.376L27.4241 3.648C27.5561 3.336 27.5801 3.252 27.5801 3.096C27.5801 2.916 27.4001 2.64 27.0641 2.64C26.7161 2.64 26.6441 2.88 26.4881 3.288L24.7961 7.812ZM32.8397 6.096C33.2597 6.096 33.7637 6.096 33.7637 5.424C33.7637 4.884 33.4397 2.64 30.9797 2.64C28.9757 2.64 28.0397 4.08 28.0397 5.88C28.0397 7.716 28.9637 9.144 31.0037 9.144C33.2957 9.144 33.6437 7.5 33.6437 7.344C33.6437 7.14 33.4757 6.948 33.2477 6.948C32.9957 6.948 32.8757 7.152 32.8037 7.26C32.4437 7.812 32.0837 8.376 31.0517 8.376C30.0677 8.376 29.1437 7.764 29.1077 6.096H32.8397ZM29.1197 5.376C29.1797 4.884 29.4077 3.408 30.9437 3.408C32.3597 3.408 32.6477 4.716 32.6957 5.376H29.1197ZM39.5442 8.064C39.8442 8.424 40.4322 9.144 41.7522 9.144C44.0082 9.144 44.5242 7.032 44.5242 5.832C44.5242 4.512 43.9242 2.64 41.7762 2.64C40.4082 2.64 39.6882 3.564 39.5802 3.72V1.14C39.5802 0.719999 39.5802 0.263999 39.0642 0.263999C38.5362 0.263999 38.5362 0.732 38.5362 1.128V8.316C38.5362 8.664 38.5362 8.88 38.6802 9C38.7762 9.096 38.9082 9.144 39.0402 9.144C39.5442 9.144 39.5442 8.616 39.5442 8.436V8.064ZM41.5482 8.328C40.6122 8.328 39.5682 7.728 39.5682 5.952C39.5682 3.84 40.9482 3.456 41.5842 3.456C42.7482 3.456 43.4562 4.488 43.4562 5.844C43.4562 7.704 42.3642 8.328 41.5482 8.328ZM45.7538 6.816C45.7538 7.296 45.7778 7.692 46.0538 8.232C46.3898 8.892 47.2538 9.144 47.8898 9.144C49.0658 9.144 49.5938 8.46 49.9058 8.064C49.9058 8.988 49.9898 9.144 50.4098 9.144C50.8418 9.144 50.9138 8.844 50.9138 8.316V3.504C50.9138 2.892 50.8058 2.64 50.3858 2.64C49.9538 2.64 49.8698 2.928 49.8698 3.504V5.448C49.8698 6.84 49.7378 7.092 49.5938 7.368C49.3178 7.884 48.7058 8.232 48.1058 8.232C47.6738 8.232 47.2418 8.004 47.0018 7.608C46.7978 7.272 46.7978 6.828 46.7978 6.408V3.504C46.7978 2.904 46.6898 2.64 46.2818 2.64C45.8858 2.64 45.7538 2.88 45.7538 3.504V6.816ZM52.8847 2.784H52.5847C52.4527 2.784 52.0207 2.784 52.0207 3.156C52.0207 3.18 52.0207 3.54 52.4887 3.54H52.8847V7.32C52.8847 8.088 52.8847 9.108 54.3487 9.108C54.9967 9.108 55.5247 9 55.5247 8.592C55.5247 8.352 55.3687 8.22 55.1647 8.22C55.0807 8.22 54.6487 8.292 54.5527 8.292C53.9647 8.292 53.9287 7.86 53.9287 7.236V3.54H54.5167C54.8407 3.54 55.1287 3.432 55.1287 3.156C55.1287 2.784 54.7327 2.784 54.4807 2.784H53.9287V1.668C53.9287 1.224 53.9287 0.744 53.4007 0.744C53.1967 0.744 53.0287 0.875999 52.9687 0.983999C52.8847 1.14 52.8847 1.272 52.8847 1.728V2.784ZM56.5058 2.784H56.2058C56.0738 2.784 55.6418 2.784 55.6418 3.156C55.6418 3.18 55.6418 3.54 56.1098 3.54H56.5058V7.32C56.5058 8.088 56.5058 9.108 57.9698 9.108C58.6178 9.108 59.1458 9 59.1458 8.592C59.1458 8.352 58.9898 8.22 58.7858 8.22C58.7018 8.22 58.2698 8.292 58.1738 8.292C57.5858 8.292 57.5498 7.86 57.5498 7.236V3.54H58.1378C58.4618 3.54 58.7498 3.432 58.7498 3.156C58.7498 2.784 58.3538 2.784 58.1018 2.784H57.5498V1.668C57.5498 1.224 57.5498 0.744 57.0218 0.744C56.8178 0.744 56.6498 0.875999 56.5898 0.983999C56.5058 1.14 56.5058 1.272 56.5058 1.728V2.784ZM65.4069 5.892C65.4069 3.6 64.0509 2.64 62.4789 2.64C60.6549 2.64 59.5509 3.84 59.5509 6.012C59.5509 7.704 60.5229 9.144 62.4789 9.144C64.0389 9.144 65.4069 8.184 65.4069 5.892ZM64.3389 5.892C64.3389 7.368 63.6669 8.328 62.4909 8.328C61.3149 8.328 60.6189 7.38 60.6189 5.892C60.6189 4.428 61.3029 3.456 62.4909 3.456C63.6069 3.456 64.3389 4.344 64.3389 5.892ZM71.9618 5.028C71.9618 4.632 71.9618 3.876 71.5538 3.408C71.1218 2.916 70.5578 2.64 69.8018 2.64C68.6858 2.64 68.1578 3.288 67.8338 3.708C67.8338 3.192 67.8218 3.036 67.7258 2.868C67.6778 2.76 67.5098 2.64 67.3178 2.64C67.1498 2.64 67.0178 2.724 66.9458 2.784C66.8138 2.916 66.8138 3.132 66.8138 3.468V8.292C66.8138 8.64 66.8138 8.868 66.9578 9C67.0538 9.084 67.1978 9.144 67.3298 9.144C67.4858 9.144 67.6058 9.084 67.7018 9C67.8458 8.868 67.8578 8.64 67.8578 8.292V6.312C67.8578 5.004 67.9658 4.74 68.1458 4.416C68.4338 3.888 69.0338 3.552 69.6338 3.552C70.0658 3.552 70.4978 3.756 70.7258 4.152C70.8578 4.38 70.9178 4.716 70.9178 5.328V8.292C70.9178 8.64 70.9178 8.868 71.0618 9C71.1698 9.096 71.3138 9.144 71.4458 9.144C71.6018 9.144 71.7218 9.084 71.8178 9C71.9618 8.868 71.9618 8.64 71.9618 8.292V5.028Z" fill="black"/>
</svg>
