<svg width="97" height="10" viewBox="0 0 97 10" fill="none" xmlns="http://www.w3.org/2000/svg">
<path d="M6.012 6.516L6.78 8.412C6.972 8.892 7.056 9.144 7.452 9.144C7.8 9.144 8.028 8.844 8.028 8.616C8.028 8.436 7.968 8.292 7.848 7.992L5.028 1.272C4.92 1.008 4.764 0.636 4.644 0.504C4.524 0.36 4.284 0.263999 4.068 0.263999C3.516 0.263999 3.384 0.611999 3.12 1.284L0.396 8.04C0.288 8.316 0.228 8.46 0.228 8.64C0.228 8.88 0.468 9.144 0.78 9.144C1.176 9.144 1.26 8.892 1.44 8.436L2.184 6.516H6.012ZM2.508 5.592L4.056 1.572L5.664 5.592H2.508ZM14.4537 7.176C14.4537 6.876 14.2017 6.696 13.9737 6.696C13.6377 6.696 13.5057 7.092 13.3137 7.44C12.9897 8.016 12.3777 8.328 11.7177 8.328C10.5417 8.328 9.80972 7.404 9.80972 5.856C9.80972 4.38 10.5777 3.456 11.7417 3.456C12.7977 3.456 13.2057 4.176 13.3617 4.44C13.6017 4.848 13.7337 4.86 13.8657 4.86C14.1057 4.86 14.3337 4.668 14.3337 4.404C14.3337 3.888 13.6017 2.64 11.7297 2.64C9.37772 2.64 8.76572 4.464 8.76572 5.904C8.76572 6.828 8.99372 7.428 9.20972 7.812C9.50972 8.34 10.1457 9.144 11.7777 9.144C13.7937 9.144 14.4537 7.524 14.4537 7.176ZM16.1034 2.784H15.8034C15.6714 2.784 15.2394 2.784 15.2394 3.156C15.2394 3.18 15.2394 3.54 15.7074 3.54H16.1034V7.32C16.1034 8.088 16.1034 9.108 17.5674 9.108C18.2154 9.108 18.7434 9 18.7434 8.592C18.7434 8.352 18.5874 8.22 18.3834 8.22C18.2994 8.22 17.8674 8.292 17.7714 8.292C17.1834 8.292 17.1474 7.86 17.1474 7.236V3.54H17.7354C18.0594 3.54 18.3474 3.432 18.3474 3.156C18.3474 2.784 17.9514 2.784 17.6994 2.784H17.1474V1.668C17.1474 1.224 17.1474 0.744 16.6194 0.744C16.4154 0.744 16.2474 0.875999 16.1874 0.983999C16.1034 1.14 16.1034 1.272 16.1034 1.728V2.784ZM20.6125 3.492C20.6125 3.06 20.6245 2.64 20.0965 2.64C19.6885 2.64 19.5565 2.868 19.5565 3.492V8.292C19.5565 8.664 19.5685 9.144 20.0845 9.144C20.4085 9.144 20.6005 9.012 20.6125 8.292V3.492ZM20.6605 1.02C20.6605 0.707999 20.4085 0.443999 20.0845 0.443999C19.7605 0.443999 19.5085 0.707999 19.5085 1.02C19.5085 1.344 19.7605 1.608 20.0845 1.608C20.4085 1.608 20.6605 1.344 20.6605 1.02ZM24.6008 7.812L22.8968 3.288C22.7408 2.88 22.6568 2.64 22.3208 2.64C21.9848 2.64 21.8048 2.904 21.8048 3.096C21.8048 3.252 21.8408 3.336 21.9608 3.648L23.8568 8.376C24.0488 8.844 24.1688 9.144 24.6008 9.144C25.0208 9.144 25.1408 8.844 25.3328 8.376L27.2288 3.648C27.3608 3.336 27.3848 3.252 27.3848 3.096C27.3848 2.916 27.2048 2.64 26.8688 2.64C26.5208 2.64 26.4488 2.88 26.2928 3.288L24.6008 7.812ZM32.6444 6.096C33.0644 6.096 33.5684 6.096 33.5684 5.424C33.5684 4.884 33.2444 2.64 30.7844 2.64C28.7804 2.64 27.8444 4.08 27.8444 5.88C27.8444 7.716 28.7684 9.144 30.8084 9.144C33.1004 9.144 33.4484 7.5 33.4484 7.344C33.4484 7.14 33.2804 6.948 33.0524 6.948C32.8004 6.948 32.6804 7.152 32.6084 7.26C32.2484 7.812 31.8884 8.376 30.8564 8.376C29.8724 8.376 28.9484 7.764 28.9124 6.096H32.6444ZM28.9244 5.376C28.9844 4.884 29.2124 3.408 30.7484 3.408C32.1644 3.408 32.4524 4.716 32.5004 5.376H28.9244ZM39.5888 1.224C39.5888 0.816 39.5888 0.599999 39.4328 0.443999C39.3248 0.323999 39.1688 0.263999 39.0128 0.263999C38.8208 0.263999 38.6768 0.36 38.5928 0.443999C38.4368 0.599999 38.4368 0.804 38.4368 1.224V5.7C38.4368 8.232 39.6488 9.144 41.9408 9.144C44.6048 9.144 45.2408 7.44 45.2408 5.688V1.224C45.2408 0.816 45.2408 0.599999 45.0848 0.443999C44.9768 0.323999 44.8208 0.263999 44.6648 0.263999C44.4728 0.263999 44.3288 0.36 44.2448 0.443999C44.0888 0.599999 44.0888 0.804 44.0888 1.224V5.796C44.0888 6.768 43.8848 8.22 41.8568 8.22C39.5888 8.22 39.5888 6.516 39.5888 5.784V1.224ZM48.535 1.212C48.535 0.468 48.331 0.263999 47.959 0.263999C47.491 0.263999 47.383 0.551999 47.383 1.212V8.196C47.383 8.916 47.551 9.144 47.959 9.144C48.415 9.144 48.535 8.868 48.535 8.196V1.212ZM58.4257 6.096C58.8457 6.096 59.3497 6.096 59.3497 5.424C59.3497 4.884 59.0257 2.64 56.5657 2.64C54.5617 2.64 53.6257 4.08 53.6257 5.88C53.6257 7.716 54.5497 9.144 56.5897 9.144C58.8817 9.144 59.2297 7.5 59.2297 7.344C59.2297 7.14 59.0617 6.948 58.8337 6.948C58.5817 6.948 58.4617 7.152 58.3897 7.26C58.0297 7.812 57.6697 8.376 56.6377 8.376C55.6537 8.376 54.7297 7.764 54.6937 6.096H58.4257ZM54.7057 5.376C54.7657 4.884 54.9937 3.408 56.5297 3.408C57.9457 3.408 58.2337 4.716 58.2817 5.376H54.7057ZM61.8274 1.128C61.8274 0.48 61.6594 0.263999 61.2994 0.263999C60.8914 0.263999 60.7834 0.491999 60.7834 1.128V8.292C60.7834 8.688 60.7834 9.144 61.2994 9.144C61.7074 9.144 61.8274 8.892 61.8274 8.292V1.128ZM68.0702 6.096C68.4902 6.096 68.9942 6.096 68.9942 5.424C68.9942 4.884 68.6702 2.64 66.2102 2.64C64.2062 2.64 63.2702 4.08 63.2702 5.88C63.2702 7.716 64.1942 9.144 66.2342 9.144C68.5262 9.144 68.8742 7.5 68.8742 7.344C68.8742 7.14 68.7062 6.948 68.4782 6.948C68.2262 6.948 68.1062 7.152 68.0342 7.26C67.6742 7.812 67.3142 8.376 66.2822 8.376C65.2982 8.376 64.3742 7.764 64.3382 6.096H68.0702ZM64.3502 5.376C64.4102 4.884 64.6382 3.408 66.1742 3.408C67.5902 3.408 67.8782 4.716 67.9262 5.376H64.3502ZM78.7199 4.728C78.7199 4.428 78.7199 3.984 78.4919 3.516C78.1559 2.844 77.3639 2.64 76.7999 2.64C75.6359 2.64 75.0959 3.396 74.8799 3.732C74.5199 2.736 73.5239 2.64 73.1159 2.64C72.2279 2.64 71.5919 3.096 71.2319 3.648C71.2319 2.844 71.1959 2.64 70.7639 2.64C70.2959 2.64 70.2959 3.096 70.2959 3.492V8.28C70.2959 8.952 70.4519 9.144 70.8239 9.144C71.2559 9.144 71.3399 8.88 71.3399 8.28V5.772C71.3399 4.812 71.5199 3.552 72.8879 3.552C73.9919 3.552 73.9919 4.56 73.9919 4.956V8.28C73.9919 8.952 74.1479 9.144 74.5199 9.144C74.9519 9.144 75.0359 8.88 75.0359 8.28V5.388C75.0359 5.028 75.0479 4.644 75.3119 4.2C75.5639 3.768 76.1039 3.552 76.5599 3.552C77.6759 3.552 77.6759 4.524 77.6759 5.076V8.268C77.6759 8.664 77.6759 9.144 78.2039 9.144C78.6119 9.144 78.7199 8.904 78.7199 8.28V4.728ZM84.828 6.096C85.248 6.096 85.752 6.096 85.752 5.424C85.752 4.884 85.428 2.64 82.968 2.64C80.964 2.64 80.028 4.08 80.028 5.88C80.028 7.716 80.952 9.144 82.992 9.144C85.284 9.144 85.632 7.5 85.632 7.344C85.632 7.14 85.464 6.948 85.236 6.948C84.984 6.948 84.864 7.152 84.792 7.26C84.432 7.812 84.072 8.376 83.04 8.376C82.056 8.376 81.132 7.764 81.096 6.096H84.828ZM81.108 5.376C81.168 4.884 81.396 3.408 82.932 3.408C84.348 3.408 84.636 4.716 84.684 5.376H81.108ZM92.2977 5.028C92.2977 4.632 92.2977 3.876 91.8897 3.408C91.4577 2.916 90.8937 2.64 90.1377 2.64C89.0217 2.64 88.4937 3.288 88.1697 3.708C88.1697 3.192 88.1577 3.036 88.0617 2.868C88.0137 2.76 87.8457 2.64 87.6537 2.64C87.4857 2.64 87.3537 2.724 87.2817 2.784C87.1497 2.916 87.1497 3.132 87.1497 3.468V8.292C87.1497 8.64 87.1497 8.868 87.2937 9C87.3897 9.084 87.5337 9.144 87.6657 9.144C87.8217 9.144 87.9417 9.084 88.0377 9C88.1817 8.868 88.1937 8.64 88.1937 8.292V6.312C88.1937 5.004 88.3017 4.74 88.4817 4.416C88.7697 3.888 89.3697 3.552 89.9697 3.552C90.4017 3.552 90.8337 3.756 91.0617 4.152C91.1937 4.38 91.2537 4.716 91.2537 5.328V8.292C91.2537 8.64 91.2537 8.868 91.3977 9C91.5057 9.096 91.6497 9.144 91.7817 9.144C91.9377 9.144 92.0577 9.084 92.1537 9C92.2977 8.868 92.2977 8.64 92.2977 8.292V5.028ZM94.2206 2.784H93.9206C93.7886 2.784 93.3566 2.784 93.3566 3.156C93.3566 3.18 93.3566 3.54 93.8246 3.54H94.2206V7.32C94.2206 8.088 94.2206 9.108 95.6846 9.108C96.3326 9.108 96.8606 9 96.8606 8.592C96.8606 8.352 96.7046 8.22 96.5006 8.22C96.4166 8.22 95.9846 8.292 95.8886 8.292C95.3006 8.292 95.2646 7.86 95.2646 7.236V3.54H95.8526C96.1766 3.54 96.4646 3.432 96.4646 3.156C96.4646 2.784 96.0686 2.784 95.8166 2.784H95.2646V1.668C95.2646 1.224 95.2646 0.744 94.7366 0.744C94.5326 0.744 94.3646 0.875999 94.3046 0.983999C94.2206 1.14 94.2206 1.272 94.2206 1.728V2.784Z" fill="black"/>
</svg>
