<svg width="29" height="10" viewBox="0 0 29 10" fill="none" xmlns="http://www.w3.org/2000/svg">
<path d="M1.328 1.212C1.328 0.468 1.124 0.263999 0.752 0.263999C0.284 0.263999 0.176 0.551999 0.176 1.212V8.196C0.176 8.916 0.344 9.144 0.752 9.144C1.208 9.144 1.328 8.868 1.328 8.196V1.212ZM8.69591 7.176C8.69591 6.876 8.44391 6.696 8.21591 6.696C7.87991 6.696 7.74791 7.092 7.55591 7.44C7.23191 8.016 6.61991 8.328 5.95991 8.328C4.78391 8.328 4.05191 7.404 4.05191 5.856C4.05191 4.38 4.81991 3.456 5.98391 3.456C7.03991 3.456 7.44791 4.176 7.60391 4.44C7.84391 4.848 7.97591 4.86 8.10791 4.86C8.34791 4.86 8.57591 4.668 8.57591 4.404C8.57591 3.888 7.84391 2.64 5.97191 2.64C3.61991 2.64 3.00791 4.464 3.00791 5.904C3.00791 6.828 3.23591 7.428 3.45191 7.812C3.75191 8.34 4.38791 9.144 6.01991 9.144C8.03591 9.144 8.69591 7.524 8.69591 7.176ZM15.6256 5.892C15.6256 3.6 14.2696 2.64 12.6976 2.64C10.8736 2.64 9.76963 3.84 9.76963 6.012C9.76963 7.704 10.7416 9.144 12.6976 9.144C14.2576 9.144 15.6256 8.184 15.6256 5.892ZM14.5576 5.892C14.5576 7.368 13.8856 8.328 12.7096 8.328C11.5336 8.328 10.8376 7.38 10.8376 5.892C10.8376 4.428 11.5216 3.456 12.7096 3.456C13.8256 3.456 14.5576 4.344 14.5576 5.892ZM22.1805 5.028C22.1805 4.632 22.1805 3.876 21.7725 3.408C21.3405 2.916 20.7765 2.64 20.0205 2.64C18.9045 2.64 18.3765 3.288 18.0525 3.708C18.0525 3.192 18.0405 3.036 17.9445 2.868C17.8965 2.76 17.7285 2.64 17.5365 2.64C17.3685 2.64 17.2365 2.724 17.1645 2.784C17.0325 2.916 17.0325 3.132 17.0325 3.468V8.292C17.0325 8.64 17.0325 8.868 17.1765 9C17.2725 9.084 17.4165 9.144 17.5485 9.144C17.7045 9.144 17.8245 9.084 17.9205 9C18.0645 8.868 18.0765 8.64 18.0765 8.292V6.312C18.0765 5.004 18.1845 4.74 18.3645 4.416C18.6525 3.888 19.2525 3.552 19.8525 3.552C20.2845 3.552 20.7165 3.756 20.9445 4.152C21.0765 4.38 21.1365 4.716 21.1365 5.328V8.292C21.1365 8.64 21.1365 8.868 21.2805 9C21.3885 9.096 21.5325 9.144 21.6645 9.144C21.8205 9.144 21.9405 9.084 22.0365 9C22.1805 8.868 22.1805 8.64 22.1805 8.292V5.028ZM28.6274 7.188C28.6274 5.904 27.3434 5.556 26.3954 5.352C24.9554 5.04 24.6074 4.74 24.6074 4.26C24.6074 3.696 25.1954 3.384 25.9634 3.384C27.4514 3.384 27.2714 4.572 27.8594 4.572C28.2674 4.572 28.3034 4.224 28.3034 4.14C28.3034 3.912 27.9794 2.64 25.9394 2.64C24.3794 2.64 23.6114 3.48 23.6114 4.416C23.6114 4.908 23.8634 5.292 24.1514 5.532C24.4994 5.82 24.8234 5.964 26.1074 6.288C26.7314 6.444 27.5354 6.636 27.5354 7.404C27.5354 7.908 27.0434 8.4 26.0834 8.4C25.1234 8.4 24.6914 7.956 24.4514 7.404C24.3554 7.188 24.2474 6.996 23.9714 6.996C23.7194 6.996 23.5154 7.2 23.5154 7.428C23.5154 7.86 23.8034 8.244 24.0434 8.484C24.4754 8.916 25.0754 9.144 26.0114 9.144C28.3514 9.144 28.6274 7.728 28.6274 7.188Z" fill="black"/>
</svg>
