<svg width="71" height="12" viewBox="0 0 71 12" fill="none" xmlns="http://www.w3.org/2000/svg">
<path d="M1.48034 1.212C1.48034 0.468 1.27634 0.263999 0.904344 0.263999C0.436344 0.263999 0.328344 0.551999 0.328344 1.212V8.196C0.328344 8.916 0.496344 9.144 0.904344 9.144C1.36034 9.144 1.48034 8.868 1.48034 8.196V1.212ZM8.69225 5.028C8.69225 4.632 8.69225 3.876 8.28425 3.408C7.85225 2.916 7.28825 2.64 6.53225 2.64C5.41625 2.64 4.88825 3.288 4.56425 3.708C4.56425 3.192 4.55225 3.036 4.45625 2.868C4.40825 2.76 4.24025 2.64 4.04825 2.64C3.88025 2.64 3.74825 2.724 3.67625 2.784C3.54425 2.916 3.54425 3.132 3.54425 3.468V8.292C3.54425 8.64 3.54425 8.868 3.68825 9C3.78425 9.084 3.92825 9.144 4.06025 9.144C4.21625 9.144 4.33625 9.084 4.43225 9C4.57625 8.868 4.58825 8.64 4.58825 8.292V6.312C4.58825 5.004 4.69625 4.74 4.87625 4.416C5.16425 3.888 5.76425 3.552 6.36425 3.552C6.79625 3.552 7.22825 3.756 7.45625 4.152C7.58825 4.38 7.64825 4.716 7.64825 5.328V8.292C7.64825 8.64 7.64825 8.868 7.79225 9C7.90025 9.096 8.04425 9.144 8.17625 9.144C8.33225 9.144 8.45225 9.084 8.54825 9C8.69225 8.868 8.69225 8.64 8.69225 8.292V5.028ZM15.0192 3.768C14.7192 3.396 14.1312 2.64 12.8112 2.64C10.8432 2.64 10.0632 4.332 10.0632 5.88C10.0632 6.516 10.2912 9.096 12.8592 9.096C13.9872 9.096 14.6592 8.448 14.9832 8.124C14.9712 9.144 14.9712 9.54 14.7312 9.996C14.4792 10.476 13.8312 10.74 12.9792 10.74C11.9712 10.74 11.6232 10.368 11.4192 10.044C11.0952 9.54 11.0592 9.48 10.8072 9.48C10.5072 9.48 10.3272 9.72 10.3272 9.924C10.3272 10.236 10.8072 11.556 12.9792 11.556C13.4952 11.556 15.2352 11.508 15.7992 10.092C15.9432 9.732 16.0272 9.084 16.0272 8.328V3.576C16.0272 3.084 16.0272 2.64 15.5232 2.64C15.0312 2.64 15.0192 3.132 15.0192 3.288V3.768ZM13.0512 8.28C12.0792 8.28 11.1312 7.632 11.1312 5.892C11.1312 3.804 12.4152 3.456 13.0512 3.456C14.1672 3.456 14.9832 4.32 14.9832 5.94C14.9832 7.692 13.9152 8.28 13.0512 8.28ZM21.7808 8.124C21.9008 8.568 22.0688 9.144 22.4768 9.144C22.7528 9.144 22.9808 8.94 22.9808 8.736C22.9808 8.544 22.8728 8.256 22.8608 8.196C22.7888 8.004 22.6928 7.74 22.6928 7.164C22.6928 6.888 22.7288 5.52 22.7288 5.208C22.7288 3.768 22.5728 2.64 20.1968 2.64C17.9408 2.64 17.5328 3.972 17.5328 4.332C17.5328 4.584 17.7488 4.776 18.0008 4.776C18.3248 4.776 18.4088 4.548 18.5168 4.272C18.7808 3.624 19.5488 3.408 20.2688 3.408C21.6368 3.408 21.6608 4.188 21.6848 5.016C21.4088 5.112 21.2768 5.148 21.0968 5.196C20.8568 5.256 19.6208 5.472 19.3448 5.532C18.6128 5.676 17.3048 5.952 17.3048 7.368C17.3048 8.244 17.9408 9.144 19.3208 9.144C20.6768 9.144 21.4568 8.436 21.7808 8.124ZM21.6968 5.76C21.6968 6.456 21.6728 7.02 21.4328 7.428C21.0728 8.052 20.2208 8.328 19.5608 8.328C18.6968 8.328 18.3728 7.728 18.3728 7.296C18.3728 7.056 18.4808 6.552 19.1768 6.36C19.6688 6.228 20.2568 6.144 21.0008 5.976C21.3248 5.904 21.5408 5.82 21.6968 5.76ZM32.7785 4.728C32.7785 4.428 32.7785 3.984 32.5505 3.516C32.2145 2.844 31.4225 2.64 30.8585 2.64C29.6945 2.64 29.1545 3.396 28.9385 3.732C28.5785 2.736 27.5825 2.64 27.1745 2.64C26.2865 2.64 25.6505 3.096 25.2905 3.648C25.2905 2.844 25.2545 2.64 24.8225 2.64C24.3545 2.64 24.3545 3.096 24.3545 3.492V8.28C24.3545 8.952 24.5105 9.144 24.8825 9.144C25.3145 9.144 25.3985 8.88 25.3985 8.28V5.772C25.3985 4.812 25.5785 3.552 26.9465 3.552C28.0505 3.552 28.0505 4.56 28.0505 4.956V8.28C28.0505 8.952 28.2065 9.144 28.5785 9.144C29.0105 9.144 29.0945 8.88 29.0945 8.28V5.388C29.0945 5.028 29.1065 4.644 29.3705 4.2C29.6225 3.768 30.1625 3.552 30.6185 3.552C31.7345 3.552 31.7345 4.524 31.7345 5.076V8.268C31.7345 8.664 31.7345 9.144 32.2625 9.144C32.6705 9.144 32.7785 8.904 32.7785 8.28V4.728ZM38.8866 6.096C39.3066 6.096 39.8106 6.096 39.8106 5.424C39.8106 4.884 39.4866 2.64 37.0266 2.64C35.0226 2.64 34.0866 4.08 34.0866 5.88C34.0866 7.716 35.0106 9.144 37.0506 9.144C39.3426 9.144 39.6906 7.5 39.6906 7.344C39.6906 7.14 39.5226 6.948 39.2946 6.948C39.0426 6.948 38.9226 7.152 38.8506 7.26C38.4906 7.812 38.1306 8.376 37.0986 8.376C36.1146 8.376 35.1906 7.764 35.1546 6.096H38.8866ZM35.1666 5.376C35.2266 4.884 35.4546 3.408 36.9906 3.408C38.4066 3.408 38.6946 4.716 38.7426 5.376H35.1666ZM52.923 4.728C52.923 4.428 52.923 3.984 52.695 3.516C52.359 2.844 51.567 2.64 51.003 2.64C49.839 2.64 49.299 3.396 49.083 3.732C48.723 2.736 47.727 2.64 47.319 2.64C46.431 2.64 45.795 3.096 45.435 3.648C45.435 2.844 45.399 2.64 44.967 2.64C44.499 2.64 44.499 3.096 44.499 3.492V8.28C44.499 8.952 44.655 9.144 45.027 9.144C45.459 9.144 45.543 8.88 45.543 8.28V5.772C45.543 4.812 45.723 3.552 47.091 3.552C48.195 3.552 48.195 4.56 48.195 4.956V8.28C48.195 8.952 48.351 9.144 48.723 9.144C49.155 9.144 49.239 8.88 49.239 8.28V5.388C49.239 5.028 49.251 4.644 49.515 4.2C49.767 3.768 50.307 3.552 50.763 3.552C51.879 3.552 51.879 4.524 51.879 5.076V8.268C51.879 8.664 51.879 9.144 52.407 9.144C52.815 9.144 52.923 8.904 52.923 8.28V4.728ZM59.0311 6.096C59.4511 6.096 59.9551 6.096 59.9551 5.424C59.9551 4.884 59.6311 2.64 57.1711 2.64C55.1671 2.64 54.2311 4.08 54.2311 5.88C54.2311 7.716 55.1551 9.144 57.1951 9.144C59.4871 9.144 59.8351 7.5 59.8351 7.344C59.8351 7.14 59.6671 6.948 59.4391 6.948C59.1871 6.948 59.0671 7.152 58.9951 7.26C58.6351 7.812 58.2751 8.376 57.2431 8.376C56.2591 8.376 55.3351 7.764 55.2991 6.096H59.0311ZM55.3111 5.376C55.3711 4.884 55.5991 3.408 57.1351 3.408C58.5511 3.408 58.8391 4.716 58.8871 5.376H55.3111ZM61.5448 2.784H61.2448C61.1128 2.784 60.6808 2.784 60.6808 3.156C60.6808 3.18 60.6808 3.54 61.1488 3.54H61.5448V7.32C61.5448 8.088 61.5448 9.108 63.0088 9.108C63.6568 9.108 64.1848 9 64.1848 8.592C64.1848 8.352 64.0288 8.22 63.8248 8.22C63.7408 8.22 63.3088 8.292 63.2128 8.292C62.6248 8.292 62.5888 7.86 62.5888 7.236V3.54H63.1768C63.5008 3.54 63.7888 3.432 63.7888 3.156C63.7888 2.784 63.3928 2.784 63.1408 2.784H62.5888V1.668C62.5888 1.224 62.5888 0.744 62.0608 0.744C61.8568 0.744 61.6888 0.875999 61.6288 0.983999C61.5448 1.14 61.5448 1.272 61.5448 1.728V2.784ZM69.0659 8.124C69.1859 8.568 69.3539 9.144 69.7619 9.144C70.0379 9.144 70.2659 8.94 70.2659 8.736C70.2659 8.544 70.1579 8.256 70.1459 8.196C70.0739 8.004 69.9779 7.74 69.9779 7.164C69.9779 6.888 70.0139 5.52 70.0139 5.208C70.0139 3.768 69.8579 2.64 67.4819 2.64C65.2259 2.64 64.8179 3.972 64.8179 4.332C64.8179 4.584 65.0339 4.776 65.2859 4.776C65.6099 4.776 65.6939 4.548 65.8019 4.272C66.0659 3.624 66.8339 3.408 67.5539 3.408C68.9219 3.408 68.9459 4.188 68.9699 5.016C68.6939 5.112 68.5619 5.148 68.3819 5.196C68.1419 5.256 66.9059 5.472 66.6299 5.532C65.8979 5.676 64.5899 5.952 64.5899 7.368C64.5899 8.244 65.2259 9.144 66.6059 9.144C67.9619 9.144 68.7419 8.436 69.0659 8.124ZM68.9819 5.76C68.9819 6.456 68.9579 7.02 68.7179 7.428C68.3579 8.052 67.5059 8.328 66.8459 8.328C65.9819 8.328 65.6579 7.728 65.6579 7.296C65.6579 7.056 65.7659 6.552 66.4619 6.36C66.9539 6.228 67.5419 6.144 68.2859 5.976C68.6099 5.904 68.8259 5.82 68.9819 5.76Z" fill="black"/>
</svg>
