<svg width="122" height="12" viewBox="0 0 122 12" fill="none" xmlns="http://www.w3.org/2000/svg">
<path d="M1.46863 1.212C1.46863 0.468 1.26463 0.263999 0.892625 0.263999C0.424625 0.263999 0.316625 0.551999 0.316625 1.212V8.196C0.316625 8.916 0.484625 9.144 0.892625 9.144C1.34863 9.144 1.46863 8.868 1.46863 8.196V1.212ZM8.68053 5.028C8.68053 4.632 8.68053 3.876 8.27253 3.408C7.84053 2.916 7.27653 2.64 6.52053 2.64C5.40453 2.64 4.87653 3.288 4.55253 3.708C4.55253 3.192 4.54053 3.036 4.44453 2.868C4.39653 2.76 4.22853 2.64 4.03653 2.64C3.86853 2.64 3.73653 2.724 3.66453 2.784C3.53253 2.916 3.53253 3.132 3.53253 3.468V8.292C3.53253 8.64 3.53253 8.868 3.67653 9C3.77253 9.084 3.91653 9.144 4.04853 9.144C4.20453 9.144 4.32453 9.084 4.42053 9C4.56453 8.868 4.57653 8.64 4.57653 8.292V6.312C4.57653 5.004 4.68453 4.74 4.86453 4.416C5.15253 3.888 5.75253 3.552 6.35253 3.552C6.78453 3.552 7.21653 3.756 7.44453 4.152C7.57653 4.38 7.63653 4.716 7.63653 5.328V8.292C7.63653 8.64 7.63653 8.868 7.78053 9C7.88853 9.096 8.03253 9.144 8.16453 9.144C8.32053 9.144 8.44053 9.084 8.53653 9C8.68053 8.868 8.68053 8.64 8.68053 8.292V5.028ZM15.0074 3.768C14.7074 3.396 14.1194 2.64 12.7994 2.64C10.8314 2.64 10.0514 4.332 10.0514 5.88C10.0514 6.516 10.2794 9.096 12.8474 9.096C13.9754 9.096 14.6474 8.448 14.9714 8.124C14.9594 9.144 14.9594 9.54 14.7194 9.996C14.4674 10.476 13.8194 10.74 12.9674 10.74C11.9594 10.74 11.6114 10.368 11.4074 10.044C11.0834 9.54 11.0474 9.48 10.7954 9.48C10.4954 9.48 10.3154 9.72 10.3154 9.924C10.3154 10.236 10.7954 11.556 12.9674 11.556C13.4834 11.556 15.2234 11.508 15.7874 10.092C15.9314 9.732 16.0154 9.084 16.0154 8.328V3.576C16.0154 3.084 16.0154 2.64 15.5114 2.64C15.0194 2.64 15.0074 3.132 15.0074 3.288V3.768ZM13.0394 8.28C12.0674 8.28 11.1194 7.632 11.1194 5.892C11.1194 3.804 12.4034 3.456 13.0394 3.456C14.1554 3.456 14.9714 4.32 14.9714 5.94C14.9714 7.692 13.9034 8.28 13.0394 8.28ZM21.7691 8.124C21.8891 8.568 22.0571 9.144 22.4651 9.144C22.7411 9.144 22.9691 8.94 22.9691 8.736C22.9691 8.544 22.8611 8.256 22.8491 8.196C22.7771 8.004 22.6811 7.74 22.6811 7.164C22.6811 6.888 22.7171 5.52 22.7171 5.208C22.7171 3.768 22.5611 2.64 20.1851 2.64C17.9291 2.64 17.5211 3.972 17.5211 4.332C17.5211 4.584 17.7371 4.776 17.9891 4.776C18.3131 4.776 18.3971 4.548 18.5051 4.272C18.7691 3.624 19.5371 3.408 20.2571 3.408C21.6251 3.408 21.6491 4.188 21.6731 5.016C21.3971 5.112 21.2651 5.148 21.0851 5.196C20.8451 5.256 19.6091 5.472 19.3331 5.532C18.6011 5.676 17.2931 5.952 17.2931 7.368C17.2931 8.244 17.9291 9.144 19.3091 9.144C20.6651 9.144 21.4451 8.436 21.7691 8.124ZM21.6851 5.76C21.6851 6.456 21.6611 7.02 21.4211 7.428C21.0611 8.052 20.2091 8.328 19.5491 8.328C18.6851 8.328 18.3611 7.728 18.3611 7.296C18.3611 7.056 18.4691 6.552 19.1651 6.36C19.6571 6.228 20.2451 6.144 20.9891 5.976C21.3131 5.904 21.5291 5.82 21.6851 5.76ZM32.7668 4.728C32.7668 4.428 32.7668 3.984 32.5388 3.516C32.2028 2.844 31.4108 2.64 30.8468 2.64C29.6828 2.64 29.1428 3.396 28.9268 3.732C28.5668 2.736 27.5708 2.64 27.1628 2.64C26.2748 2.64 25.6388 3.096 25.2788 3.648C25.2788 2.844 25.2428 2.64 24.8108 2.64C24.3428 2.64 24.3428 3.096 24.3428 3.492V8.28C24.3428 8.952 24.4988 9.144 24.8708 9.144C25.3028 9.144 25.3868 8.88 25.3868 8.28V5.772C25.3868 4.812 25.5668 3.552 26.9348 3.552C28.0388 3.552 28.0388 4.56 28.0388 4.956V8.28C28.0388 8.952 28.1948 9.144 28.5668 9.144C28.9988 9.144 29.0828 8.88 29.0828 8.28V5.388C29.0828 5.028 29.0948 4.644 29.3588 4.2C29.6108 3.768 30.1508 3.552 30.6068 3.552C31.7228 3.552 31.7228 4.524 31.7228 5.076V8.268C31.7228 8.664 31.7228 9.144 32.2508 9.144C32.6588 9.144 32.7668 8.904 32.7668 8.28V4.728ZM38.8749 6.096C39.2949 6.096 39.7989 6.096 39.7989 5.424C39.7989 4.884 39.4749 2.64 37.0149 2.64C35.0109 2.64 34.0749 4.08 34.0749 5.88C34.0749 7.716 34.9989 9.144 37.0389 9.144C39.3309 9.144 39.6789 7.5 39.6789 7.344C39.6789 7.14 39.5109 6.948 39.2829 6.948C39.0309 6.948 38.9109 7.152 38.8389 7.26C38.4789 7.812 38.1189 8.376 37.0869 8.376C36.1029 8.376 35.1789 7.764 35.1429 6.096H38.8749ZM35.1549 5.376C35.2149 4.884 35.4429 3.408 36.9789 3.408C38.3949 3.408 38.6829 4.716 38.7309 5.376H35.1549ZM45.5793 3.72V3.348C45.5793 3.168 45.5793 2.64 45.0753 2.64C44.9433 2.64 44.8113 2.688 44.7153 2.784C44.5713 2.904 44.5713 3.12 44.5713 3.468V10.656C44.5713 11.052 44.5713 11.52 45.0993 11.52C45.6153 11.52 45.6153 11.064 45.6153 10.644V8.064C45.7233 8.22 46.4433 9.144 47.8113 9.144C49.9593 9.144 50.5593 7.272 50.5593 5.952C50.5593 4.752 50.0433 2.64 47.7873 2.64C46.4673 2.64 45.8793 3.36 45.5793 3.72ZM47.5833 3.456C48.3993 3.456 49.4913 4.08 49.4913 5.94C49.4913 7.296 48.7833 8.328 47.6193 8.328C46.9833 8.328 45.6033 7.944 45.6033 5.832C45.6033 4.056 46.6473 3.456 47.5833 3.456ZM52.0021 8.292C52.0021 8.652 52.0021 8.868 52.1581 9C52.2541 9.096 52.3861 9.144 52.5301 9.144C52.6861 9.144 53.0461 9.072 53.0461 8.544V6.288C53.0461 4.86 53.2501 3.648 54.3661 3.648C54.8221 3.648 54.9661 3.828 55.2301 3.828C55.3861 3.828 55.6501 3.648 55.6501 3.348C55.6501 2.904 54.9301 2.64 54.4141 2.64C53.6461 2.64 53.3221 3.132 52.9021 3.78V3.3C52.9021 3.012 52.9021 2.64 52.4581 2.64C52.0021 2.64 52.0021 3.012 52.0021 3.3V8.292ZM60.9061 6.096C61.3261 6.096 61.8301 6.096 61.8301 5.424C61.8301 4.884 61.5061 2.64 59.0461 2.64C57.0421 2.64 56.1061 4.08 56.1061 5.88C56.1061 7.716 57.0301 9.144 59.0701 9.144C61.3621 9.144 61.7101 7.5 61.7101 7.344C61.7101 7.14 61.5421 6.948 61.3141 6.948C61.0621 6.948 60.9421 7.152 60.8701 7.26C60.5101 7.812 60.1501 8.376 59.1181 8.376C58.1341 8.376 57.2101 7.764 57.1741 6.096H60.9061ZM57.1861 5.376C57.2461 4.884 57.4741 3.408 59.0101 3.408C60.4261 3.408 60.7141 4.716 60.7621 5.376H57.1861ZM71.5558 4.728C71.5558 4.428 71.5558 3.984 71.3278 3.516C70.9918 2.844 70.1998 2.64 69.6358 2.64C68.4718 2.64 67.9318 3.396 67.7158 3.732C67.3558 2.736 66.3598 2.64 65.9518 2.64C65.0638 2.64 64.4278 3.096 64.0678 3.648C64.0678 2.844 64.0318 2.64 63.5998 2.64C63.1318 2.64 63.1318 3.096 63.1318 3.492V8.28C63.1318 8.952 63.2878 9.144 63.6598 9.144C64.0918 9.144 64.1758 8.88 64.1758 8.28V5.772C64.1758 4.812 64.3558 3.552 65.7238 3.552C66.8278 3.552 66.8278 4.56 66.8278 4.956V8.28C66.8278 8.952 66.9838 9.144 67.3558 9.144C67.7878 9.144 67.8718 8.88 67.8718 8.28V5.388C67.8718 5.028 67.8838 4.644 68.1478 4.2C68.3998 3.768 68.9398 3.552 69.3958 3.552C70.5118 3.552 70.5118 4.524 70.5118 5.076V8.268C70.5118 8.664 70.5118 9.144 71.0398 9.144C71.4478 9.144 71.5558 8.904 71.5558 8.28V4.728ZM74.3039 3.492C74.3039 3.06 74.3159 2.64 73.7879 2.64C73.3799 2.64 73.2479 2.868 73.2479 3.492V8.292C73.2479 8.664 73.2599 9.144 73.7759 9.144C74.0999 9.144 74.2919 9.012 74.3039 8.292V3.492ZM74.3519 1.02C74.3519 0.707999 74.0999 0.443999 73.7759 0.443999C73.4519 0.443999 73.1999 0.707999 73.1999 1.02C73.1999 1.344 73.4519 1.608 73.7759 1.608C74.0999 1.608 74.3519 1.344 74.3519 1.02ZM76.0468 6.816C76.0468 7.296 76.0708 7.692 76.3468 8.232C76.6828 8.892 77.5468 9.144 78.1828 9.144C79.3588 9.144 79.8868 8.46 80.1988 8.064C80.1988 8.988 80.2828 9.144 80.7028 9.144C81.1348 9.144 81.2068 8.844 81.2068 8.316V3.504C81.2068 2.892 81.0988 2.64 80.6788 2.64C80.2468 2.64 80.1628 2.928 80.1628 3.504V5.448C80.1628 6.84 80.0308 7.092 79.8868 7.368C79.6108 7.884 78.9988 8.232 78.3988 8.232C77.9668 8.232 77.5348 8.004 77.2948 7.608C77.0908 7.272 77.0908 6.828 77.0908 6.408V3.504C77.0908 2.904 76.9827 2.64 76.5748 2.64C76.1788 2.64 76.0468 2.88 76.0468 3.504V6.816ZM91.3137 4.728C91.3137 4.428 91.3137 3.984 91.0857 3.516C90.7497 2.844 89.9577 2.64 89.3937 2.64C88.2297 2.64 87.6897 3.396 87.4737 3.732C87.1137 2.736 86.1177 2.64 85.7097 2.64C84.8217 2.64 84.1857 3.096 83.8257 3.648C83.8257 2.844 83.7897 2.64 83.3577 2.64C82.8897 2.64 82.8897 3.096 82.8897 3.492V8.28C82.8897 8.952 83.0457 9.144 83.4177 9.144C83.8497 9.144 83.9337 8.88 83.9337 8.28V5.772C83.9337 4.812 84.1137 3.552 85.4817 3.552C86.5857 3.552 86.5857 4.56 86.5857 4.956V8.28C86.5857 8.952 86.7417 9.144 87.1137 9.144C87.5457 9.144 87.6297 8.88 87.6297 8.28V5.388C87.6297 5.028 87.6417 4.644 87.9057 4.2C88.1577 3.768 88.6977 3.552 89.1537 3.552C90.2697 3.552 90.2697 4.524 90.2697 5.076V8.268C90.2697 8.664 90.2697 9.144 90.7977 9.144C91.2057 9.144 91.3137 8.904 91.3137 8.28V4.728ZM96.5605 2.784H96.2605C96.1285 2.784 95.6965 2.784 95.6965 3.156C95.6965 3.18 95.6965 3.54 96.1645 3.54H96.5605V7.32C96.5605 8.088 96.5605 9.108 98.0245 9.108C98.6725 9.108 99.2005 9 99.2005 8.592C99.2005 8.352 99.0445 8.22 98.8405 8.22C98.7565 8.22 98.3245 8.292 98.2285 8.292C97.6405 8.292 97.6045 7.86 97.6045 7.236V3.54H98.1925C98.5165 3.54 98.8045 3.432 98.8045 3.156C98.8045 2.784 98.4085 2.784 98.1565 2.784H97.6045V1.668C97.6045 1.224 97.6045 0.744 97.0765 0.744C96.8725 0.744 96.7045 0.875999 96.6445 0.983999C96.5605 1.14 96.5605 1.272 96.5605 1.728V2.784ZM105.462 5.892C105.462 3.6 104.106 2.64 102.534 2.64C100.71 2.64 99.6056 3.84 99.6056 6.012C99.6056 7.704 100.578 9.144 102.534 9.144C104.094 9.144 105.462 8.184 105.462 5.892ZM104.394 5.892C104.394 7.368 103.722 8.328 102.546 8.328C101.37 8.328 100.674 7.38 100.674 5.892C100.674 4.428 101.358 3.456 102.546 3.456C103.662 3.456 104.394 4.344 104.394 5.892ZM112.34 5.892C112.34 3.6 110.984 2.64 109.412 2.64C107.588 2.64 106.484 3.84 106.484 6.012C106.484 7.704 107.456 9.144 109.412 9.144C110.972 9.144 112.34 8.184 112.34 5.892ZM111.272 5.892C111.272 7.368 110.6 8.328 109.424 8.328C108.248 8.328 107.552 7.38 107.552 5.892C107.552 4.428 108.236 3.456 109.424 3.456C110.54 3.456 111.272 4.344 111.272 5.892ZM114.827 1.128C114.827 0.48 114.659 0.263999 114.299 0.263999C113.891 0.263999 113.783 0.491999 113.783 1.128V8.292C113.783 8.688 113.783 9.144 114.299 9.144C114.707 9.144 114.827 8.892 114.827 8.292V1.128ZM121.346 7.188C121.346 5.904 120.062 5.556 119.114 5.352C117.674 5.04 117.326 4.74 117.326 4.26C117.326 3.696 117.914 3.384 118.682 3.384C120.17 3.384 119.99 4.572 120.578 4.572C120.986 4.572 121.022 4.224 121.022 4.14C121.022 3.912 120.698 2.64 118.658 2.64C117.098 2.64 116.33 3.48 116.33 4.416C116.33 4.908 116.582 5.292 116.87 5.532C117.218 5.82 117.542 5.964 118.826 6.288C119.45 6.444 120.254 6.636 120.254 7.404C120.254 7.908 119.762 8.4 118.802 8.4C117.842 8.4 117.41 7.956 117.17 7.404C117.074 7.188 116.966 6.996 116.69 6.996C116.438 6.996 116.234 7.2 116.234 7.428C116.234 7.86 116.522 8.244 116.762 8.484C117.194 8.916 117.794 9.144 118.73 9.144C121.07 9.144 121.346 7.728 121.346 7.188Z" fill="black"/>
</svg>
