<svg width="104" height="10" viewBox="0 0 104 10" fill="none" xmlns="http://www.w3.org/2000/svg">
<path d="M1.196 5.472H3.152C4.172 5.472 4.664 5.208 4.916 5.076C5.732 4.656 6.08 3.708 6.08 2.904C6.08 2.064 5.744 1.344 5.168 0.912C4.592 0.48 3.86 0.408 3.152 0.408H1.1C0.2 0.408 0.0440001 0.431999 0.0440001 1.368V8.196C0.0440001 8.568 0.0440001 8.82 0.188 8.964C0.308 9.084 0.464 9.144 0.62 9.144C0.848 9.144 1.052 8.988 1.112 8.856C1.184 8.688 1.196 8.472 1.196 8.196V5.472ZM2.852 1.332C3.344 1.332 4.076 1.344 4.484 1.776C4.772 2.076 4.904 2.52 4.904 2.928C4.904 4.452 3.5 4.548 2.852 4.548H1.196V1.332H2.852ZM11.187 8.124C11.307 8.568 11.475 9.144 11.883 9.144C12.159 9.144 12.387 8.94 12.387 8.736C12.387 8.544 12.279 8.256 12.267 8.196C12.195 8.004 12.099 7.74 12.099 7.164C12.099 6.888 12.135 5.52 12.135 5.208C12.135 3.768 11.979 2.64 9.60303 2.64C7.34703 2.64 6.93903 3.972 6.93903 4.332C6.93903 4.584 7.15503 4.776 7.40703 4.776C7.73103 4.776 7.81503 4.548 7.92303 4.272C8.18703 3.624 8.95503 3.408 9.67503 3.408C11.043 3.408 11.067 4.188 11.091 5.016C10.815 5.112 10.683 5.148 10.503 5.196C10.263 5.256 9.02703 5.472 8.75103 5.532C8.01903 5.676 6.71103 5.952 6.71103 7.368C6.71103 8.244 7.34703 9.144 8.72703 9.144C10.083 9.144 10.863 8.436 11.187 8.124ZM11.103 5.76C11.103 6.456 11.079 7.02 10.839 7.428C10.479 8.052 9.62703 8.328 8.96703 8.328C8.10303 8.328 7.77903 7.728 7.77903 7.296C7.77903 7.056 7.88703 6.552 8.58303 6.36C9.07503 6.228 9.66303 6.144 10.407 5.976C10.731 5.904 10.947 5.82 11.103 5.76ZM18.5728 7.188C18.5728 5.904 17.2888 5.556 16.3408 5.352C14.9008 5.04 14.5527 4.74 14.5527 4.26C14.5527 3.696 15.1408 3.384 15.9088 3.384C17.3968 3.384 17.2168 4.572 17.8048 4.572C18.2128 4.572 18.2488 4.224 18.2488 4.14C18.2488 3.912 17.9248 2.64 15.8848 2.64C14.3248 2.64 13.5568 3.48 13.5568 4.416C13.5568 4.908 13.8088 5.292 14.0968 5.532C14.4448 5.82 14.7688 5.964 16.0527 6.288C16.6768 6.444 17.4808 6.636 17.4808 7.404C17.4808 7.908 16.9888 8.4 16.0288 8.4C15.0688 8.4 14.6368 7.956 14.3968 7.404C14.3008 7.188 14.1928 6.996 13.9168 6.996C13.6648 6.996 13.4608 7.2 13.4608 7.428C13.4608 7.86 13.7488 8.244 13.9888 8.484C14.4208 8.916 15.0208 9.144 15.9568 9.144C18.2968 9.144 18.5728 7.728 18.5728 7.188ZM24.6899 7.188C24.6899 5.904 23.4059 5.556 22.4579 5.352C21.0179 5.04 20.6699 4.74 20.6699 4.26C20.6699 3.696 21.2579 3.384 22.0259 3.384C23.5139 3.384 23.3339 4.572 23.9219 4.572C24.3299 4.572 24.3659 4.224 24.3659 4.14C24.3659 3.912 24.0419 2.64 22.0019 2.64C20.4419 2.64 19.6739 3.48 19.6739 4.416C19.6739 4.908 19.9259 5.292 20.2139 5.532C20.5619 5.82 20.8859 5.964 22.1699 6.288C22.7939 6.444 23.5979 6.636 23.5979 7.404C23.5979 7.908 23.1059 8.4 22.1459 8.4C21.1859 8.4 20.7539 7.956 20.5139 7.404C20.4179 7.188 20.3099 6.996 20.0339 6.996C19.7819 6.996 19.5779 7.2 19.5779 7.428C19.5779 7.86 19.8659 8.244 20.1059 8.484C20.5379 8.916 21.1379 9.144 22.0739 9.144C24.4139 9.144 24.6899 7.728 24.6899 7.188ZM27.1711 3.492C27.1711 3.06 27.1831 2.64 26.6551 2.64C26.2471 2.64 26.1151 2.868 26.1151 3.492V8.292C26.1151 8.664 26.1271 9.144 26.6431 9.144C26.9671 9.144 27.1591 9.012 27.1711 8.292V3.492ZM27.2191 1.02C27.2191 0.707999 26.9671 0.443999 26.6431 0.443999C26.3191 0.443999 26.0671 0.707999 26.0671 1.02C26.0671 1.344 26.3191 1.608 26.6431 1.608C26.9671 1.608 27.2191 1.344 27.2191 1.02ZM31.1593 7.812L29.4553 3.288C29.2993 2.88 29.2153 2.64 28.8793 2.64C28.5433 2.64 28.3633 2.904 28.3633 3.096C28.3633 3.252 28.3993 3.336 28.5193 3.648L30.4153 8.376C30.6073 8.844 30.7273 9.144 31.1593 9.144C31.5793 9.144 31.6993 8.844 31.8913 8.376L33.7873 3.648C33.9193 3.336 33.9433 3.252 33.9433 3.096C33.9433 2.916 33.7633 2.64 33.4273 2.64C33.0793 2.64 33.0073 2.88 32.8513 3.288L31.1593 7.812ZM39.203 6.096C39.623 6.096 40.127 6.096 40.127 5.424C40.127 4.884 39.803 2.64 37.343 2.64C35.339 2.64 34.403 4.08 34.403 5.88C34.403 7.716 35.327 9.144 37.367 9.144C39.659 9.144 40.007 7.5 40.007 7.344C40.007 7.14 39.839 6.948 39.611 6.948C39.359 6.948 39.239 7.152 39.167 7.26C38.807 7.812 38.447 8.376 37.415 8.376C36.431 8.376 35.507 7.764 35.471 6.096H39.203ZM35.483 5.376C35.543 4.884 35.771 3.408 37.307 3.408C38.723 3.408 39.011 4.716 39.059 5.376H35.483ZM46.1474 1.224C46.1474 0.816 46.1474 0.599999 45.9914 0.443999C45.8834 0.323999 45.7274 0.263999 45.5714 0.263999C45.3794 0.263999 45.2354 0.36 45.1514 0.443999C44.9954 0.599999 44.9954 0.804 44.9954 1.224V5.7C44.9954 8.232 46.2074 9.144 48.4994 9.144C51.1634 9.144 51.7994 7.44 51.7994 5.688V1.224C51.7994 0.816 51.7994 0.599999 51.6434 0.443999C51.5354 0.323999 51.3794 0.263999 51.2234 0.263999C51.0314 0.263999 50.8874 0.36 50.8034 0.443999C50.6474 0.599999 50.6474 0.804 50.6474 1.224V5.796C50.6474 6.768 50.4434 8.22 48.4154 8.22C46.1474 8.22 46.1474 6.516 46.1474 5.784V1.224ZM55.0936 1.212C55.0936 0.468 54.8896 0.263999 54.5176 0.263999C54.0496 0.263999 53.9416 0.551999 53.9416 1.212V8.196C53.9416 8.916 54.1096 9.144 54.5176 9.144C54.9736 9.144 55.0936 8.868 55.0936 8.196V1.212ZM64.9843 6.096C65.4043 6.096 65.9083 6.096 65.9083 5.424C65.9083 4.884 65.5843 2.64 63.1243 2.64C61.1203 2.64 60.1843 4.08 60.1843 5.88C60.1843 7.716 61.1083 9.144 63.1483 9.144C65.4403 9.144 65.7883 7.5 65.7883 7.344C65.7883 7.14 65.6203 6.948 65.3923 6.948C65.1403 6.948 65.0203 7.152 64.9483 7.26C64.5883 7.812 64.2283 8.376 63.1963 8.376C62.2123 8.376 61.2883 7.764 61.2523 6.096H64.9843ZM61.2643 5.376C61.3243 4.884 61.5523 3.408 63.0883 3.408C64.5043 3.408 64.7923 4.716 64.8403 5.376H61.2643ZM68.386 1.128C68.386 0.48 68.218 0.263999 67.858 0.263999C67.45 0.263999 67.342 0.491999 67.342 1.128V8.292C67.342 8.688 67.342 9.144 67.858 9.144C68.266 9.144 68.386 8.892 68.386 8.292V1.128ZM74.6288 6.096C75.0488 6.096 75.5528 6.096 75.5528 5.424C75.5528 4.884 75.2288 2.64 72.7688 2.64C70.7648 2.64 69.8288 4.08 69.8288 5.88C69.8288 7.716 70.7528 9.144 72.7928 9.144C75.0848 9.144 75.4328 7.5 75.4328 7.344C75.4328 7.14 75.2648 6.948 75.0368 6.948C74.7848 6.948 74.6648 7.152 74.5928 7.26C74.2328 7.812 73.8728 8.376 72.8408 8.376C71.8568 8.376 70.9328 7.764 70.8968 6.096H74.6288ZM70.9088 5.376C70.9688 4.884 71.1968 3.408 72.7328 3.408C74.1488 3.408 74.4368 4.716 74.4848 5.376H70.9088ZM85.2785 4.728C85.2785 4.428 85.2785 3.984 85.0505 3.516C84.7145 2.844 83.9225 2.64 83.3585 2.64C82.1945 2.64 81.6545 3.396 81.4385 3.732C81.0785 2.736 80.0825 2.64 79.6745 2.64C78.7865 2.64 78.1505 3.096 77.7905 3.648C77.7905 2.844 77.7545 2.64 77.3225 2.64C76.8545 2.64 76.8545 3.096 76.8545 3.492V8.28C76.8545 8.952 77.0105 9.144 77.3825 9.144C77.8145 9.144 77.8985 8.88 77.8985 8.28V5.772C77.8985 4.812 78.0785 3.552 79.4465 3.552C80.5505 3.552 80.5505 4.56 80.5505 4.956V8.28C80.5505 8.952 80.7065 9.144 81.0785 9.144C81.5105 9.144 81.5945 8.88 81.5945 8.28V5.388C81.5945 5.028 81.6065 4.644 81.8705 4.2C82.1225 3.768 82.6625 3.552 83.1185 3.552C84.2345 3.552 84.2345 4.524 84.2345 5.076V8.268C84.2345 8.664 84.2345 9.144 84.7625 9.144C85.1705 9.144 85.2785 8.904 85.2785 8.28V4.728ZM91.3866 6.096C91.8066 6.096 92.3106 6.096 92.3106 5.424C92.3106 4.884 91.9866 2.64 89.5266 2.64C87.5226 2.64 86.5866 4.08 86.5866 5.88C86.5866 7.716 87.5106 9.144 89.5506 9.144C91.8426 9.144 92.1906 7.5 92.1906 7.344C92.1906 7.14 92.0226 6.948 91.7946 6.948C91.5426 6.948 91.4226 7.152 91.3506 7.26C90.9906 7.812 90.6306 8.376 89.5986 8.376C88.6146 8.376 87.6906 7.764 87.6546 6.096H91.3866ZM87.6666 5.376C87.7266 4.884 87.9546 3.408 89.4906 3.408C90.9066 3.408 91.1946 4.716 91.2426 5.376H87.6666ZM98.8563 5.028C98.8563 4.632 98.8563 3.876 98.4483 3.408C98.0163 2.916 97.4523 2.64 96.6963 2.64C95.5803 2.64 95.0523 3.288 94.7283 3.708C94.7283 3.192 94.7163 3.036 94.6203 2.868C94.5723 2.76 94.4043 2.64 94.2123 2.64C94.0443 2.64 93.9123 2.724 93.8403 2.784C93.7083 2.916 93.7083 3.132 93.7083 3.468V8.292C93.7083 8.64 93.7083 8.868 93.8523 9C93.9483 9.084 94.0923 9.144 94.2243 9.144C94.3803 9.144 94.5003 9.084 94.5963 9C94.7403 8.868 94.7523 8.64 94.7523 8.292V6.312C94.7523 5.004 94.8603 4.74 95.0403 4.416C95.3283 3.888 95.9283 3.552 96.5283 3.552C96.9603 3.552 97.3923 3.756 97.6203 4.152C97.7523 4.38 97.8123 4.716 97.8123 5.328V8.292C97.8123 8.64 97.8123 8.868 97.9563 9C98.0643 9.096 98.2083 9.144 98.3403 9.144C98.4963 9.144 98.6163 9.084 98.7123 9C98.8563 8.868 98.8563 8.64 98.8563 8.292V5.028ZM100.779 2.784H100.479C100.347 2.784 99.9152 2.784 99.9152 3.156C99.9152 3.18 99.9152 3.54 100.383 3.54H100.779V7.32C100.779 8.088 100.779 9.108 102.243 9.108C102.891 9.108 103.419 9 103.419 8.592C103.419 8.352 103.263 8.22 103.059 8.22C102.975 8.22 102.543 8.292 102.447 8.292C101.859 8.292 101.823 7.86 101.823 7.236V3.54H102.411C102.735 3.54 103.023 3.432 103.023 3.156C103.023 2.784 102.627 2.784 102.375 2.784H101.823V1.668C101.823 1.224 101.823 0.744 101.295 0.744C101.091 0.744 100.923 0.875999 100.863 0.983999C100.779 1.14 100.779 1.272 100.779 1.728V2.784Z" fill="black"/>
</svg>
