<svg width="79" height="10" viewBox="0 0 79 10" fill="none" xmlns="http://www.w3.org/2000/svg">
<path d="M1.61202 5.472H3.56802C4.58802 5.472 5.08002 5.208 5.33202 5.076C6.14802 4.656 6.49602 3.708 6.49602 2.904C6.49602 2.064 6.16002 1.344 5.58402 0.912C5.00802 0.48 4.27602 0.408 3.56802 0.408H1.51602C0.616016 0.408 0.460016 0.431999 0.460016 1.368V8.196C0.460016 8.568 0.460016 8.82 0.604016 8.964C0.724016 9.084 0.880016 9.144 1.03602 9.144C1.26402 9.144 1.46802 8.988 1.52802 8.856C1.60002 8.688 1.61202 8.472 1.61202 8.196V5.472ZM3.26802 1.332C3.76002 1.332 4.49202 1.344 4.90002 1.776C5.18802 2.076 5.32002 2.52 5.32002 2.928C5.32002 4.452 3.91602 4.548 3.26802 4.548H1.61202V1.332H3.26802ZM11.603 8.124C11.723 8.568 11.891 9.144 12.299 9.144C12.575 9.144 12.803 8.94 12.803 8.736C12.803 8.544 12.695 8.256 12.683 8.196C12.611 8.004 12.515 7.74 12.515 7.164C12.515 6.888 12.551 5.52 12.551 5.208C12.551 3.768 12.395 2.64 10.019 2.64C7.76305 2.64 7.35505 3.972 7.35505 4.332C7.35505 4.584 7.57105 4.776 7.82305 4.776C8.14705 4.776 8.23105 4.548 8.33905 4.272C8.60305 3.624 9.37105 3.408 10.091 3.408C11.459 3.408 11.483 4.188 11.507 5.016C11.231 5.112 11.099 5.148 10.919 5.196C10.679 5.256 9.44305 5.472 9.16705 5.532C8.43505 5.676 7.12705 5.952 7.12705 7.368C7.12705 8.244 7.76305 9.144 9.14305 9.144C10.499 9.144 11.279 8.436 11.603 8.124ZM11.519 5.76C11.519 6.456 11.495 7.02 11.255 7.428C10.895 8.052 10.043 8.328 9.38305 8.328C8.51905 8.328 8.19505 7.728 8.19505 7.296C8.19505 7.056 8.30305 6.552 8.99905 6.36C9.49105 6.228 10.079 6.144 10.823 5.976C11.147 5.904 11.363 5.82 11.519 5.76ZM18.9888 7.188C18.9888 5.904 17.7048 5.556 16.7568 5.352C15.3168 5.04 14.9688 4.74 14.9688 4.26C14.9688 3.696 15.5568 3.384 16.3248 3.384C17.8128 3.384 17.6328 4.572 18.2208 4.572C18.6288 4.572 18.6648 4.224 18.6648 4.14C18.6648 3.912 18.3408 2.64 16.3008 2.64C14.7408 2.64 13.9728 3.48 13.9728 4.416C13.9728 4.908 14.2248 5.292 14.5128 5.532C14.8608 5.82 15.1848 5.964 16.4688 6.288C17.0928 6.444 17.8968 6.636 17.8968 7.404C17.8968 7.908 17.4048 8.4 16.4448 8.4C15.4848 8.4 15.0528 7.956 14.8128 7.404C14.7168 7.188 14.6088 6.996 14.3328 6.996C14.0808 6.996 13.8768 7.2 13.8768 7.428C13.8768 7.86 14.1648 8.244 14.4048 8.484C14.8368 8.916 15.4368 9.144 16.3728 9.144C18.7128 9.144 18.9888 7.728 18.9888 7.188ZM25.106 7.188C25.106 5.904 23.822 5.556 22.874 5.352C21.434 5.04 21.086 4.74 21.086 4.26C21.086 3.696 21.674 3.384 22.442 3.384C23.93 3.384 23.75 4.572 24.338 4.572C24.746 4.572 24.782 4.224 24.782 4.14C24.782 3.912 24.458 2.64 22.418 2.64C20.858 2.64 20.09 3.48 20.09 4.416C20.09 4.908 20.342 5.292 20.63 5.532C20.978 5.82 21.302 5.964 22.586 6.288C23.21 6.444 24.014 6.636 24.014 7.404C24.014 7.908 23.522 8.4 22.562 8.4C21.602 8.4 21.17 7.956 20.93 7.404C20.834 7.188 20.726 6.996 20.45 6.996C20.198 6.996 19.994 7.2 19.994 7.428C19.994 7.86 20.282 8.244 20.522 8.484C20.954 8.916 21.554 9.144 22.49 9.144C24.83 9.144 25.106 7.728 25.106 7.188ZM27.5871 3.492C27.5871 3.06 27.5991 2.64 27.0711 2.64C26.6631 2.64 26.5311 2.868 26.5311 3.492V8.292C26.5311 8.664 26.5431 9.144 27.0591 9.144C27.3831 9.144 27.5751 9.012 27.5871 8.292V3.492ZM27.6351 1.02C27.6351 0.707999 27.3831 0.443999 27.0591 0.443999C26.7351 0.443999 26.4831 0.707999 26.4831 1.02C26.4831 1.344 26.7351 1.608 27.0591 1.608C27.3831 1.608 27.6351 1.344 27.6351 1.02ZM31.5754 7.812L29.8714 3.288C29.7154 2.88 29.6314 2.64 29.2954 2.64C28.9594 2.64 28.7794 2.904 28.7794 3.096C28.7794 3.252 28.8154 3.336 28.9354 3.648L30.8314 8.376C31.0234 8.844 31.1434 9.144 31.5754 9.144C31.9954 9.144 32.1154 8.844 32.3074 8.376L34.2034 3.648C34.3354 3.336 34.3594 3.252 34.3594 3.096C34.3594 2.916 34.1794 2.64 33.8434 2.64C33.4954 2.64 33.4234 2.88 33.2674 3.288L31.5754 7.812ZM39.619 6.096C40.039 6.096 40.543 6.096 40.543 5.424C40.543 4.884 40.219 2.64 37.759 2.64C35.755 2.64 34.819 4.08 34.819 5.88C34.819 7.716 35.743 9.144 37.783 9.144C40.075 9.144 40.423 7.5 40.423 7.344C40.423 7.14 40.255 6.948 40.027 6.948C39.775 6.948 39.655 7.152 39.583 7.26C39.223 7.812 38.863 8.376 37.831 8.376C36.847 8.376 35.923 7.764 35.887 6.096H39.619ZM35.899 5.376C35.959 4.884 36.187 3.408 37.723 3.408C39.139 3.408 39.427 4.716 39.475 5.376H35.899ZM46.3235 8.064C46.6235 8.424 47.2115 9.144 48.5315 9.144C50.7875 9.144 51.3035 7.032 51.3035 5.832C51.3035 4.512 50.7035 2.64 48.5555 2.64C47.1875 2.64 46.4675 3.564 46.3595 3.72V1.14C46.3595 0.719999 46.3595 0.263999 45.8435 0.263999C45.3155 0.263999 45.3155 0.732 45.3155 1.128V8.316C45.3155 8.664 45.3155 8.88 45.4595 9C45.5555 9.096 45.6875 9.144 45.8195 9.144C46.3235 9.144 46.3235 8.616 46.3235 8.436V8.064ZM48.3275 8.328C47.3915 8.328 46.3475 7.728 46.3475 5.952C46.3475 3.84 47.7275 3.456 48.3635 3.456C49.5275 3.456 50.2355 4.488 50.2355 5.844C50.2355 7.704 49.1435 8.328 48.3275 8.328ZM52.5331 6.816C52.5331 7.296 52.5571 7.692 52.8331 8.232C53.1691 8.892 54.0331 9.144 54.6691 9.144C55.8451 9.144 56.3731 8.46 56.6851 8.064C56.6851 8.988 56.7691 9.144 57.1891 9.144C57.6211 9.144 57.6931 8.844 57.6931 8.316V3.504C57.6931 2.892 57.5851 2.64 57.1651 2.64C56.7331 2.64 56.6491 2.928 56.6491 3.504V5.448C56.6491 6.84 56.5171 7.092 56.3731 7.368C56.0971 7.884 55.4851 8.232 54.8851 8.232C54.4531 8.232 54.0211 8.004 53.7811 7.608C53.5771 7.272 53.5771 6.828 53.5771 6.408V3.504C53.5771 2.904 53.4691 2.64 53.0611 2.64C52.6651 2.64 52.5331 2.88 52.5331 3.504V6.816ZM59.664 2.784H59.364C59.232 2.784 58.8 2.784 58.8 3.156C58.8 3.18 58.8 3.54 59.268 3.54H59.664V7.32C59.664 8.088 59.664 9.108 61.128 9.108C61.776 9.108 62.304 9 62.304 8.592C62.304 8.352 62.148 8.22 61.944 8.22C61.86 8.22 61.428 8.292 61.332 8.292C60.744 8.292 60.708 7.86 60.708 7.236V3.54H61.296C61.62 3.54 61.908 3.432 61.908 3.156C61.908 2.784 61.512 2.784 61.26 2.784H60.708V1.668C60.708 1.224 60.708 0.744 60.18 0.744C59.976 0.744 59.808 0.875999 59.748 0.983999C59.664 1.14 59.664 1.272 59.664 1.728V2.784ZM63.2851 2.784H62.9851C62.8531 2.784 62.4211 2.784 62.4211 3.156C62.4211 3.18 62.4211 3.54 62.8891 3.54H63.2851V7.32C63.2851 8.088 63.2851 9.108 64.7491 9.108C65.3971 9.108 65.9251 9 65.9251 8.592C65.9251 8.352 65.7691 8.22 65.5651 8.22C65.4811 8.22 65.0491 8.292 64.9531 8.292C64.3651 8.292 64.3291 7.86 64.3291 7.236V3.54H64.9171C65.2411 3.54 65.5291 3.432 65.5291 3.156C65.5291 2.784 65.1331 2.784 64.8811 2.784H64.3291V1.668C64.3291 1.224 64.3291 0.744 63.8011 0.744C63.5971 0.744 63.4291 0.875999 63.3691 0.983999C63.2851 1.14 63.2851 1.272 63.2851 1.728V2.784ZM72.1862 5.892C72.1862 3.6 70.8302 2.64 69.2582 2.64C67.4342 2.64 66.3302 3.84 66.3302 6.012C66.3302 7.704 67.3022 9.144 69.2582 9.144C70.8182 9.144 72.1862 8.184 72.1862 5.892ZM71.1182 5.892C71.1182 7.368 70.4462 8.328 69.2702 8.328C68.0942 8.328 67.3982 7.38 67.3982 5.892C67.3982 4.428 68.0822 3.456 69.2702 3.456C70.3862 3.456 71.1182 4.344 71.1182 5.892ZM78.7411 5.028C78.7411 4.632 78.7411 3.876 78.3331 3.408C77.9011 2.916 77.3371 2.64 76.5811 2.64C75.4651 2.64 74.9371 3.288 74.6131 3.708C74.6131 3.192 74.6011 3.036 74.5051 2.868C74.4571 2.76 74.2891 2.64 74.0971 2.64C73.9291 2.64 73.7971 2.724 73.7251 2.784C73.5931 2.916 73.5931 3.132 73.5931 3.468V8.292C73.5931 8.64 73.5931 8.868 73.7371 9C73.8331 9.084 73.9771 9.144 74.1091 9.144C74.2651 9.144 74.3851 9.084 74.4811 9C74.6251 8.868 74.6371 8.64 74.6371 8.292V6.312C74.6371 5.004 74.7451 4.74 74.9251 4.416C75.2131 3.888 75.8131 3.552 76.4131 3.552C76.8451 3.552 77.2771 3.756 77.5051 4.152C77.6371 4.38 77.6971 4.716 77.6971 5.328V8.292C77.6971 8.64 77.6971 8.868 77.8411 9C77.9491 9.096 78.0931 9.144 78.2251 9.144C78.3811 9.144 78.5011 9.084 78.5971 9C78.7411 8.868 78.7411 8.64 78.7411 8.292V5.028Z" fill="black"/>
</svg>
